<svg width="128" height="40" viewBox="0 0 128 40" fill="none" xmlns="http://www.w3.org/2000/svg">
<path d="M124 40H4C1.8 40 0 38.2 0 36V4C0 1.8 1.8 0 4 0H124C126.2 0 128 1.8 128 4V36C128 38.2 126.2 40 124 40Z" fill="black"/>
<path fill-rule="evenodd" clip-rule="evenodd" d="M9.80005 19.6V9.1C9.80005 8.5 10.3 8 10.8 8C11.3 8 11.5 8.1 11.8 8.3L31.1001 18.9C31.5001 19.1 31.7 19.4 31.7 19.7C31.7 20 31.5001 20.3 31.1001 20.5L11.8 31.1C11.6 31.2 11.3 31.4 10.8 31.4C10.3 31.4 9.80005 30.9 9.80005 30.3V19.6Z" fill="url(#paint0_linear)"/>
<path fill-rule="evenodd" clip-rule="evenodd" d="M22.3001 19.7L10.6001 8C10.7001 8 10.7001 8 10.8001 8C11.3001 8 11.5001 8.1 11.8001 8.3L26.0001 16.1L22.3001 19.7Z" fill="url(#paint1_linear)"/>
<path fill-rule="evenodd" clip-rule="evenodd" d="M25.9 23.2L22.3 19.6L26 15.9L31.1001 18.7C31.5001 18.9 31.7 19.2 31.7 19.5C31.7 19.8 31.5001 20.1 31.1001 20.3L25.9 23.2Z" fill="url(#paint2_linear)"/>
<path fill-rule="evenodd" clip-rule="evenodd" d="M10.7 31.2L22.3 19.6L25.8999 23.2L11.8 30.9C11.5 31.1 11.3 31.2 10.7 31.2C10.8 31.2 10.8 31.2 10.7 31.2Z" fill="url(#paint3_linear)"/>
<path fill-rule="evenodd" clip-rule="evenodd" d="M71.0999 33.9C70.5999 33.5 70.1999 32.8 69.9999 32.4L71.5999 31.7C71.6999 31.9 71.8999 32.2 72.0999 32.5C72.4999 32.9 73.0999 33.3 73.6999 33.3C74.2999 33.3 74.9999 33 75.3999 32.5C75.6999 32 75.8999 31.5 75.8999 30.8V30.2C74.6999 31.7 72.1999 31.5 70.7999 29.9C69.2999 28.3 69.2999 25.6 70.7999 24C72.2999 22.5 74.4999 22.3 75.7999 23.7V23H77.4999V30.5C77.4999 32.4 76.7999 33.5 75.8999 34.2C75.2999 34.7 74.3999 34.9 73.5999 34.9C72.6999 34.8 71.7999 34.5 71.0999 33.9ZM113 34.3L114.7 30.3L111.7 23.4H113.4L115.5 28.3L117.6 23.4H119.3L114.7 34.3H113ZM104.9 30.5C104.4 30 104.2 29.3 104.2 28.6C104.2 28 104.4 27.4 104.8 27C105.5 26.3 106.5 26 107.6 26C108.3 26 108.9 26.1 109.4 26.4C109.4 25.2 108.4 24.7 107.6 24.7C106.9 24.7 106.2 25.1 105.9 25.8L104.4 25.2C104.7 24.5 105.5 23.2 107.5 23.2C108.5 23.2 109.5 23.5 110.1 24.2C110.7 24.9 110.9 25.7 110.9 26.8V31H109.2V30.3C109 30.6 108.6 30.8 108.3 31C107.9 31.2 107.4 31.3 106.9 31.3C106.3 31.2 105.4 31 104.9 30.5ZM51.5999 26.9C51.5999 24.9 53.0999 22.7 55.7999 22.7C58.3999 22.7 59.9999 24.9 59.9999 26.9C59.9999 28.9 58.4999 31.1 55.7999 31.1C53.0999 31.1 51.5999 28.9 51.5999 26.9ZM60.5999 26.9C60.5999 24.9 62.0999 22.7 64.7999 22.7C67.3999 22.7 68.9999 24.9 68.9999 26.9C68.9999 28.9 67.4999 31.1 64.7999 31.1C62.1999 31.1 60.5999 28.9 60.5999 26.9ZM40.2999 29.1C37.7999 26.6 37.8999 22.5 40.3999 19.9C41.6999 18.6 43.2999 18 44.9999 18C46.5999 18 48.1999 18.6 49.3999 19.8L48.1999 21.1C46.3999 19.3 43.4999 19.4 41.7999 21.2C39.9999 23.1 39.9999 26 41.7999 27.9C43.5999 29.8 46.5999 29.9 48.3999 28C48.9999 27.4 49.1999 26.6 49.2999 25.8H45.0999V24H50.9999C51.0999 24.4 51.0999 24.9 51.0999 25.4C51.0999 26.9 50.4999 28.4 49.4999 29.4C48.3999 30.5 46.7999 31.1 45.1999 31.1C43.3999 31 41.5999 30.4 40.2999 29.1ZM82.5999 29.8C81.0999 28.2 81.0999 25.5 82.5999 23.8C84.0999 22.2 86.5999 22.2 87.9999 23.8C88.4999 24.3 88.7999 25 89.0999 25.7L83.5999 28C83.8999 28.7 84.5999 29.3 85.5999 29.3C86.4999 29.3 87.0999 29 87.6999 28.1L89.1999 29.1C88.9999 29.3 88.7999 29.5 88.6999 29.7C86.9999 31.4 84.0999 31.4 82.5999 29.8ZM92.9999 31V19.9H96.5999C98.6999 19.9 100.4 21.4 100.4 23.2C100.4 25 98.8999 26.5 96.9999 26.5H94.7999V30.9H92.9999V31ZM101.4 31V19.9H103.1V31H101.4ZM78.7999 30.8V18.4H80.5999V30.8H78.7999ZM109.3 27.7C108.9 27.4 108.3 27.3 107.7 27.3C106.5 27.3 105.8 27.9 105.8 28.6C105.8 29.3 106.5 29.7 107.2 29.7C108.2 29.7 109.3 28.9 109.3 27.7ZM58.0999 26.9C58.0999 25.7 57.2999 24.4 55.7999 24.4C54.2999 24.4 53.4999 25.7 53.4999 26.9C53.4999 28.1 54.2999 29.4 55.7999 29.4C57.1999 29.4 58.0999 28.1 58.0999 26.9ZM67.0999 26.9C67.0999 25.7 66.2999 24.4 64.7999 24.4C63.2999 24.4 62.4999 25.7 62.4999 26.9C62.4999 28.1 63.2999 29.4 64.7999 29.4C66.2999 29.4 67.0999 28.1 67.0999 26.9ZM75.9999 27.6C75.9999 27.5 75.9999 27.4 76.0999 27.3C76.0999 27.2 76.0999 27 76.0999 26.9C76.0999 26.8 76.0999 26.6 76.0999 26.5V26.4C76.0999 26.3 75.9999 26.1 75.9999 26C75.6999 25 74.7999 24.3 73.8999 24.3C72.6999 24.3 71.6999 25.5 71.6999 26.8C71.6999 28.2 72.6999 29.3 73.9999 29.3C74.7999 29.4 75.5999 28.7 75.9999 27.6ZM83.2999 26.7L86.9999 25.1C86.5999 24.4 85.9999 24.2 85.4999 24.2C83.9999 24.3 83.0999 25.9 83.2999 26.7ZM98.5999 23.3C98.5999 22.3 97.7999 21.6 96.6999 21.6H94.6999V25.1H96.7999C97.7999 25.1 98.5999 24.3 98.5999 23.3Z" fill="white"/>
<path fill-rule="evenodd" clip-rule="evenodd" d="M114.3 32.2999H114.2V32.2H114.3H114.2V32.2999H114.3Z" fill="white"/>
<path fill-rule="evenodd" clip-rule="evenodd" d="M114.5 32.2999C114.5 32.1999 114.5 32.1999 114.5 32.2999C114.4 32.1999 114.4 32.1999 114.5 32.2999C114.4 32.2999 114.4 32.2999 114.5 32.2999ZM114.5 32.2C114.5 32.3 114.5 32.3 114.5 32.2C114.5 32.3 114.4 32.3 114.5 32.2C114.4 32.2 114.5 32.2 114.5 32.2Z" fill="white"/>
<path fill-rule="evenodd" clip-rule="evenodd" d="M114.6 32.2H114.5H114.6V32.2999V32.2Z" fill="white"/>
<path d="M38.8999 10.1C38.8999 8.29995 40.1999 7.19995 41.7999 7.19995C42.8999 7.19995 43.5999 7.69995 44.0999 8.39995L43.2999 8.89995C42.9999 8.49995 42.4999 8.19995 41.7999 8.19995C40.6999 8.19995 39.8999 8.99995 39.8999 10.2C39.8999 11.4 40.6999 12.2 41.7999 12.2C42.3999 12.2 42.8999 11.9 43.0999 11.7V10.7999H41.4999V9.89995H44.1999V12C43.6999 12.6 42.8999 13 41.8999 13C40.1999 13 38.8999 11.8 38.8999 10.1Z" fill="white"/>
<path d="M45.3999 12.9V7.30005H49.1999V8.20005H46.2999V9.60005H49.0999V10.5H46.2999V12.1H49.1999V13L45.3999 12.9Z" fill="white"/>
<path d="M52 12.9V8.20005H50.3V7.30005H54.7V8.20005H53V12.9H52Z" fill="white"/>
<path d="M58.1001 12.9V7.30005H59.1001V12.9H58.1001Z" fill="white"/>
<path d="M61.8001 12.9V8.20005H60.1001V7.30005H64.5001V8.20005H62.8001V12.9H61.8001Z" fill="white"/>
<path d="M67.7 10.1C67.7 8.39995 68.9 7.19995 70.6 7.19995C72.3 7.19995 73.5 8.39995 73.5 10.1C73.5 11.8 72.3 13 70.6 13C68.9 13 67.7 11.7 67.7 10.1ZM72.3999 10.1C72.3999 8.89995 71.7 8.09995 70.5 8.09995C69.4 8.09995 68.6 8.99995 68.6 10.1C68.6 11.3 69.3 12.1 70.5 12.1C71.7 12.1 72.3999 11.2 72.3999 10.1Z" fill="white"/>
<path d="M78.5001 12.9L75.6001 8.90005V12.9H74.6001V7.30005H75.6001L78.5001 11.2001V7.30005H79.5001V12.9H78.5001Z" fill="white"/>
<defs>
<linearGradient id="paint0_linear" x1="16.2674" y1="6.5736" x2="21.8656" y2="29.5645" gradientUnits="userSpaceOnUse">
<stop stop-color="#006884"/>
<stop offset="1" stop-color="#8AD1D0"/>
</linearGradient>
<linearGradient id="paint1_linear" x1="9.4408" y1="9.8438" x2="24.6968" y2="18.0913" gradientUnits="userSpaceOnUse">
<stop stop-color="#24BBB6"/>
<stop offset="1" stop-color="#DBE692"/>
</linearGradient>
<linearGradient id="paint2_linear" x1="26.9944" y1="23.6201" x2="26.9944" y2="15.6717" gradientUnits="userSpaceOnUse">
<stop stop-color="#FCC072"/>
<stop offset="1" stop-color="#F58A5B"/>
</linearGradient>
<linearGradient id="paint3_linear" x1="12.3947" y1="33.2691" x2="24.4464" y2="21.0039" gradientUnits="userSpaceOnUse">
<stop stop-color="#712B8F"/>
<stop offset="1" stop-color="#EA1D27"/>
</linearGradient>
</defs>
</svg>
