<svg width="128" height="40" viewBox="0 0 128 40" fill="none" xmlns="http://www.w3.org/2000/svg">
<path d="M122.537 0H5.46341C4.01443 0 2.62479 0.589998 1.6002 1.6402C0.575608 2.69041 0 4.11479 0 5.6V34.4C0 35.8852 0.575608 37.3096 1.6002 38.3598C2.62479 39.41 4.01443 40 5.46341 40H122.537C123.986 40 125.375 39.41 126.4 38.3598C127.424 37.3096 128 35.8852 128 34.4V5.6C128 4.11479 127.424 2.69041 126.4 1.6402C125.375 0.589998 123.986 0 122.537 0V0Z" fill="black"/>
<path d="M25.4986 6.40002H14.2595C12.3407 6.40002 10.5004 7.18135 9.14353 8.57212C7.78668 9.96289 7.02441 11.8492 7.02441 13.816V25.336C7.02648 27.3015 7.78966 29.1857 9.14629 30.5748C10.5029 31.9638 12.342 32.744 14.2595 32.744H25.4986C27.4147 32.7419 29.2518 31.9607 30.6068 30.5719C31.9617 29.1831 32.7238 27.3001 32.7259 25.336V13.816C32.7259 11.8506 31.9647 9.96549 30.6095 8.57495C29.2544 7.18441 27.4161 6.40214 25.4986 6.40002V6.40002Z" fill="#C8102E"/>
<path d="M12.1133 19.5759H12.7923V23.0239H12.1133V21.5999H10.5523V22.9999H9.86548V19.5759H10.5523V20.9599H12.1133V19.5759ZM15.9533 21.5439C15.9533 22.0959 15.6879 22.4079 15.1728 22.4079C14.6577 22.4079 14.3923 22.0959 14.3923 21.5119V19.5759H13.7133V21.5439C13.6892 21.7453 13.7094 21.9497 13.7723 22.142C13.8353 22.3343 13.9394 22.5098 14.0771 22.6556C14.2148 22.8013 14.3826 22.9136 14.5681 22.9843C14.7536 23.0549 14.9523 23.0822 15.1494 23.0639C15.35 23.0808 15.5517 23.0518 15.74 22.9789C15.9283 22.906 16.0985 22.7912 16.2381 22.6426C16.3778 22.4941 16.4835 22.3156 16.5477 22.1201C16.6118 21.9245 16.6327 21.7168 16.6089 21.5119V19.5759H15.9221L15.9533 21.5439ZM23.8362 21.9439L23.0557 19.5439H22.4938L21.7133 21.9439L20.9718 19.5439H20.2928L21.4635 22.9919H22.0333L22.8138 20.7279L23.5943 22.9919H24.164L25.3347 19.5439H24.6245L23.8362 21.9439ZM26.5367 21.5359H27.7777V20.9119H26.5367V20.2079H28.3396V19.5759H25.8343V23.0159H28.3787V22.3999H26.5367V21.5359ZM29.2216 23.0159H29.8928V19.5759H29.1904L29.2216 23.0159ZM17.9513 22.2959L17.6469 23.0159H16.9523L18.4196 19.5759H19.0206L20.4957 23.0159H19.7933L19.5123 22.3039L17.9513 22.2959ZM18.2089 21.6799H19.2313L18.7318 20.4479L18.2089 21.6799Z" fill="white"/>
<path d="M19.879 15.2001C19.3161 15.2011 18.7585 15.0879 18.2386 14.8668C17.7186 14.6458 17.2465 14.3214 16.8495 13.9122C16.4526 13.5031 16.1386 13.0175 15.9258 12.4833C15.713 11.9491 15.6056 11.377 15.6097 10.8H16.2107C16.1878 11.3089 16.2658 11.8173 16.4401 12.2944C16.6143 12.7715 16.8811 13.2075 17.2243 13.5759C17.5676 13.9443 17.9801 14.2376 18.4371 14.438C18.894 14.6383 19.3859 14.7416 19.8829 14.7416C20.3799 14.7416 20.8718 14.6383 21.3287 14.438C21.7857 14.2376 22.1982 13.9443 22.5415 13.5759C22.8847 13.2075 23.1515 12.7715 23.3258 12.2944C23.5 11.8173 23.578 11.3089 23.5551 10.8H24.1951C24.1972 11.3805 24.0868 11.9556 23.8704 12.4919C23.6539 13.0283 23.3357 13.5153 22.9342 13.9246C22.5327 14.3339 22.0558 14.6574 21.5314 14.8764C21.0069 15.0953 20.4453 15.2054 19.879 15.2001V15.2001Z" fill="white"/>
<path d="M44.2536 17.952L39.3989 30.4H41.3189L42.6223 26.864H47.4926L48.8506 30.4H50.8018L45.8301 17.952H44.2536ZM46.8916 25.28H43.1999L44.6048 21.544C44.7687 21.112 44.9092 20.744 45.034 20.312C45.2136 20.84 45.3619 21.264 45.4945 21.568L46.8916 25.28Z" fill="white"/>
<path d="M57.4439 21.4C56.9261 21.0866 56.336 20.9209 55.7347 20.92C55.1936 20.9172 54.6592 21.0432 54.1737 21.288C53.7834 21.488 53.4211 21.7409 53.0966 22.04C53.0966 21.792 53.0264 21.512 52.9796 21.24V21.128H51.3015V21.272C51.3483 21.92 51.3718 22.656 51.3718 23.432V34.184L53.1591 33.976V30.248C53.4144 30.3352 53.6751 30.4047 53.9396 30.456C54.297 30.5266 54.6604 30.5615 55.0244 30.56C55.8059 30.5761 56.5763 30.3683 57.2488 29.96C57.8921 29.5406 58.3978 28.9331 58.7005 28.216C59.0573 27.3622 59.2329 26.4405 59.2157 25.512C59.2397 24.6222 59.0746 23.7378 58.7317 22.92C58.4608 22.2925 58.0121 21.7629 57.4439 21.4V21.4ZM57.3581 25.6C57.4197 26.5266 57.1899 27.449 56.7025 28.232C56.4776 28.5291 56.1848 28.7648 55.8499 28.9183C55.515 29.0718 55.1484 29.1383 54.7825 29.112C54.4692 29.0938 54.1582 29.0456 53.8537 28.968C53.6066 28.9186 53.3657 28.8408 53.1357 28.736V23.552C53.4072 23.2262 53.7415 22.9614 54.1175 22.7741C54.4936 22.5869 54.9033 22.4813 55.321 22.464C55.5907 22.4629 55.8572 22.523 56.1015 22.64C56.3519 22.7665 56.5688 22.9531 56.7337 23.184C57.1747 23.8983 57.3723 24.7423 57.2957 25.584L57.3581 25.6Z" fill="white"/>
<path d="M66.3414 21.4C65.8212 21.0856 65.2282 20.9199 64.6243 20.92C64.0831 20.916 63.5485 21.0421 63.0634 21.288C62.6706 21.4879 62.3057 21.7408 61.9785 22.04C61.9785 21.792 61.916 21.512 61.8614 21.24V21.128H60.1833V21.272C60.1833 21.92 60.2458 22.656 60.2458 23.432V34.184L62.0331 33.976V30.248C62.2888 30.3339 62.5495 30.4033 62.8136 30.456C63.1711 30.5267 63.5344 30.5615 63.8985 30.56C64.6797 30.5824 65.451 30.3771 66.1229 29.968C66.7632 29.543 67.27 28.9374 67.5824 28.224C67.9375 27.3672 68.1105 26.4427 68.0897 25.512C68.1214 24.6242 67.956 23.7407 67.6058 22.928C67.3376 22.3039 66.8984 21.773 66.3414 21.4V21.4ZM66.2477 25.6C66.2955 26.5171 66.0548 27.4257 65.5609 28.192C65.3377 28.489 65.0464 28.7248 64.7127 28.8783C64.3791 29.0319 64.0135 29.0984 63.6487 29.072C63.3468 29.0695 63.046 29.0346 62.7512 28.968C62.5015 28.9187 62.258 28.8409 62.0253 28.736V23.552C62.2969 23.2262 62.6311 22.9614 63.0072 22.7742C63.3832 22.587 63.7929 22.4814 64.2107 22.464C64.4915 22.4544 64.7703 22.5149 65.0232 22.6403C65.2761 22.7658 65.4955 22.9524 65.6624 23.184C66.0959 23.9016 66.2929 24.7429 66.2243 25.584L66.2477 25.6Z" fill="white"/>
<path d="M74.3805 25.96H77.3385V28.512C76.9483 28.6494 76.5493 28.759 76.1444 28.84C75.7061 28.9187 75.2624 28.9615 74.8176 28.968C74.0126 28.9989 73.2168 28.7846 72.5307 28.352C71.9374 27.9464 71.4776 27.3664 71.2117 26.688C70.9171 25.9244 70.7713 25.1091 70.7824 24.288C70.7526 23.361 70.9371 22.44 71.321 21.6C71.6641 20.8956 72.2087 20.3151 72.8819 19.936C73.5703 19.5588 74.3415 19.3687 75.1219 19.384C76.191 19.404 77.2409 19.6779 78.1893 20.184L78.3219 20.248L78.9073 18.736L78.7902 18.68C78.2372 18.4005 77.6563 18.1832 77.0576 18.032C76.4119 17.866 75.7486 17.7827 75.0829 17.784C73.9981 17.7712 72.9266 18.0293 71.961 18.536C71.0024 19.0415 70.214 19.8302 69.6976 20.8C69.1467 21.8852 68.8779 23.0975 68.9171 24.32C68.8922 25.4586 69.1274 26.5873 69.6039 27.616C70.0418 28.5438 70.7439 29.3137 71.6176 29.824C72.5705 30.37 73.648 30.6461 74.7395 30.624C76.232 30.615 77.7037 30.2652 79.0478 29.6H79.1258V24.376H74.4429L74.3805 25.96Z" fill="white"/>
<path d="M87.8362 28.544V24.976C87.8669 24.1533 87.7204 23.3339 87.4069 22.576C87.1605 22.0119 86.7299 21.5536 86.1894 21.28C85.6019 21.0161 84.9651 20.8877 84.324 20.904C83.7137 20.9024 83.1056 20.9777 82.5133 21.128C82.0514 21.2384 81.6016 21.3966 81.1708 21.6L81.0772 21.648L81.3972 23.112L81.5533 23.032C81.9512 22.8471 82.3637 22.6972 82.7864 22.584C83.2186 22.4608 83.6647 22.3963 84.1133 22.392C84.378 22.3769 84.6432 22.4149 84.8937 22.504C85.1407 22.5937 85.3667 22.7354 85.5572 22.92C85.9541 23.4484 86.1384 24.1125 86.0723 24.776V24.84C85.5543 24.7763 85.033 24.7443 84.5113 24.744C83.4122 24.6397 82.3113 24.9218 81.3893 25.544C81.0773 25.8096 80.8267 26.143 80.6557 26.52C80.4788 26.9593 80.3997 27.4336 80.424 27.9082C80.4483 28.3828 80.5754 28.846 80.7962 29.264C81.0382 29.6726 81.3907 30.0005 81.8108 30.208C82.2568 30.4251 82.7454 30.5345 83.2391 30.528C83.867 30.5362 84.4877 30.3908 85.0498 30.104C85.4547 29.8969 85.8259 29.6271 86.1503 29.304C86.1658 29.6212 86.2049 29.9368 86.2674 30.248V30.36H87.9142V30.24C87.8596 29.48 87.8362 28.912 87.8362 28.544ZM86.0567 26.144V27.92C85.7525 28.2602 85.3832 28.5325 84.9718 28.72C84.5363 28.947 84.0555 29.0675 83.5669 29.072C83.2031 29.0953 82.844 28.9783 82.5601 28.744C82.4306 28.6045 82.3321 28.438 82.2713 28.256C82.2088 28.0767 82.1848 27.8856 82.2011 27.696C82.1921 27.4685 82.2321 27.2418 82.3181 27.032C82.4135 26.8227 82.552 26.6371 82.724 26.488C83.3099 26.1255 83.9939 25.9656 84.6752 26.032C85.0733 26.024 85.5572 26.056 86.0567 26.104V26.144Z" fill="white"/>
<path d="M92.2067 28.912C92.0643 28.9548 91.9178 28.9816 91.7697 28.992C91.6744 29.0116 91.5762 29.0116 91.4809 28.992C91.3848 28.9553 91.299 28.8948 91.2311 28.816C91.1027 28.571 91.0458 28.2933 91.0672 28.016V17.04L89.2955 17.24V28.232C89.2495 28.8564 89.4332 29.4757 89.8107 29.968C90.0082 30.1676 90.2442 30.3226 90.5036 30.4232C90.763 30.5238 91.0401 30.5676 91.317 30.552C91.5159 30.5496 91.7142 30.5309 91.9102 30.496C92.1041 30.4707 92.295 30.4251 92.4799 30.36L92.5892 30.32L92.3394 28.872L92.2067 28.912Z" fill="white"/>
<path d="M96.7806 28.912C96.6381 28.9548 96.4916 28.9816 96.3435 28.992C96.2455 29.0115 96.1448 29.0115 96.0469 28.992C95.9532 28.955 95.87 28.8945 95.8049 28.816C95.6765 28.571 95.6196 28.2933 95.641 28.016V17.04L93.8615 17.24V28.232C93.8176 28.8574 94.0042 29.4769 94.3844 29.968C94.5799 30.1713 94.8172 30.3271 95.0791 30.424C95.3278 30.5215 95.5936 30.5651 95.8596 30.552C96.0584 30.5496 96.2568 30.5309 96.4527 30.496C96.6467 30.4707 96.8376 30.4251 97.0225 30.36L97.124 30.32L96.8742 28.872L96.7806 28.912Z" fill="white"/>
<path d="M103.563 21.528C102.959 21.1077 102.24 20.8949 101.51 20.92C100.771 20.9067 100.042 21.1092 99.4108 21.504C98.7858 21.9149 98.292 22.5045 97.9903 23.2C97.6388 24.0239 97.4683 24.917 97.4908 25.816C97.4669 26.6876 97.6322 27.5538 97.9747 28.352C98.284 29.0248 98.7882 29.5835 99.4186 29.952C100.136 30.3499 100.945 30.5407 101.76 30.504C102.351 30.5149 102.94 30.4531 103.516 30.32C104.014 30.1922 104.495 30.007 104.952 29.768L105.054 29.712L104.585 28.376L104.445 28.44C103.684 28.8102 102.852 28.9989 102.01 28.992C101.638 29.0144 101.266 28.9545 100.918 28.8165C100.571 28.6785 100.256 28.4655 99.9962 28.192C99.4973 27.5362 99.2452 26.7184 99.2859 25.888H105.155V25.208C105.163 24.487 105.031 23.7716 104.765 23.104C104.521 22.471 104.103 21.9238 103.563 21.528V21.528ZM101.463 22.4C101.712 22.3856 101.96 22.4294 102.189 22.528C102.422 22.6293 102.63 22.7823 102.798 22.976C103.143 23.437 103.342 23.9954 103.368 24.576H99.3952C99.4695 23.9846 99.711 23.4284 100.09 22.976C100.263 22.7789 100.476 22.6232 100.714 22.52C100.961 22.4131 101.227 22.3613 101.495 22.368L101.463 22.4Z" fill="white"/>
<path d="M110.728 20.92C110.333 20.9109 109.943 21.0074 109.596 21.2C109.27 21.372 108.981 21.6086 108.745 21.896C108.568 22.1065 108.404 22.3282 108.254 22.56C108.254 22.432 108.254 22.288 108.254 22.136C108.254 21.776 108.191 21.472 108.16 21.216V21.096H106.513V21.24C106.552 22.248 106.576 23.008 106.576 23.504V30.4H108.363V24.28C108.672 23.7858 109.057 23.3455 109.502 22.976C109.85 22.7125 110.272 22.5746 110.704 22.584C110.915 22.5785 111.126 22.6054 111.329 22.664H111.469L111.727 21.024H111.61C111.323 20.9408 111.025 20.9057 110.728 20.92V20.92Z" fill="white"/>
<path d="M118.829 21.088L116.972 26.688C116.8 27.216 116.644 27.72 116.496 28.216C116.386 27.792 116.223 27.256 116.012 26.616L114.115 21.12H112.195L115.559 30.24L115.403 30.632C115.21 31.1957 114.91 31.7149 114.521 32.16C114.299 32.3855 114.021 32.5453 113.718 32.6227C113.414 32.7001 113.096 32.6923 112.796 32.6L112.312 32.488H112.18L111.828 33.944L111.945 33.992C112.43 34.1598 112.94 34.241 113.452 34.232C114.03 34.2493 114.604 34.1114 115.114 33.832C115.6 33.5206 116.005 33.0922 116.293 32.584C116.678 31.9404 116.994 31.2566 117.237 30.544L120.687 21.088H118.829Z" fill="white"/>
<path d="M39.6331 6.49597H43.1218L43.0126 7.19197H40.4292V9.19197H42.8799V9.86397H40.4292V12.064H43.1453L43.0594 12.768H39.6331V6.49597Z" fill="white"/>
<path d="M45.5883 9.59997L43.7074 6.49597H44.6205L46.041 8.89597L47.5317 6.49597H48.3903L46.4937 9.52797L48.5542 12.8H47.6098L46.0488 10.168L44.4254 12.8H43.5435L45.5883 9.59997Z" fill="white"/>
<path d="M49.3892 6.49604H50.9501C51.5527 6.45573 52.1512 6.62176 52.6516 6.96804C52.8482 7.13022 53.0036 7.33885 53.1043 7.57604C53.2103 7.81388 53.2559 8.0753 53.237 8.33604C53.2514 8.71468 53.1593 9.08957 52.9716 9.41604C52.7834 9.72712 52.5127 9.97685 52.1911 10.136C51.8365 10.313 51.4459 10.4007 51.0516 10.392C50.7701 10.3935 50.4895 10.3586 50.2165 10.288V12.8H49.436L49.3892 6.49604ZM52.035 9.36804C52.1682 9.24109 52.2722 9.08532 52.3394 8.91204C52.4088 8.73703 52.4407 8.54879 52.4331 8.36004C52.444 8.18484 52.4146 8.00945 52.3472 7.84804C52.2773 7.68791 52.1701 7.54781 52.035 7.44004C51.6951 7.23883 51.3012 7.15471 50.9111 7.20004H50.1853V9.69604C50.4138 9.74411 50.6466 9.76824 50.8799 9.76804C51.3004 9.78867 51.7129 9.64581 52.035 9.36804V9.36804Z" fill="white"/>
<path d="M54.3064 6.49597H55.0869V12.04H57.7561L57.6703 12.768H54.3064V6.49597Z" fill="white"/>
<path d="M59.317 12.464C58.8798 12.2058 58.5289 11.8182 58.3102 11.352C58.0685 10.8332 57.9508 10.2628 57.9668 9.68805C57.9511 9.08757 58.0769 8.49207 58.3336 7.95205C58.5681 7.47069 58.9378 7.07227 59.3951 6.80805C59.8968 6.52643 60.4622 6.38568 61.0341 6.40005C61.5796 6.39129 62.1178 6.52921 62.595 6.80005C63.0285 7.06074 63.3763 7.44787 63.5941 7.91205C63.8286 8.41096 63.9488 8.95824 63.9453 9.51205C63.9616 10.1177 63.8358 10.7186 63.5785 11.264C63.3358 11.7495 62.9583 12.1504 62.4936 12.416C61.9957 12.6929 61.4365 12.8334 60.8702 12.824C60.3306 12.8463 59.7948 12.7221 59.317 12.464V12.464ZM62.1268 11.856C62.4681 11.6401 62.7396 11.3256 62.9072 10.952C63.0611 10.5196 63.1275 10.0596 63.1024 9.60005C63.108 9.15794 63.0339 8.71858 62.8838 8.30405C62.7532 7.93412 62.5131 7.61527 62.197 7.39205C61.8282 7.16899 61.4077 7.05133 60.9794 7.05133C60.5512 7.05133 60.1307 7.16899 59.7619 7.39205C59.4327 7.6162 59.177 7.9368 59.0282 8.31205C58.8574 8.71858 58.7723 9.15748 58.7785 9.60005C58.7737 10.0461 58.8532 10.4889 59.0126 10.904C59.1577 11.2769 59.4076 11.5972 59.7307 11.824C60.0809 12.0567 60.4921 12.1739 60.9092 12.16C61.333 12.185 61.7544 12.0791 62.119 11.856H62.1268Z" fill="white"/>
<path d="M65.1863 6.49594H66.958C67.4897 6.46202 68.0171 6.61126 68.4565 6.91994C68.6374 7.05883 68.78 7.24354 68.8702 7.45594C68.9654 7.66308 69.0083 7.89138 68.9951 8.11994C69.0033 8.42893 68.9334 8.73483 68.7921 9.00794C68.6592 9.24894 68.4816 9.46093 68.2692 9.63194C68.0808 9.78688 67.8702 9.91102 67.6448 9.99994L69.557 12.7999H68.6126L66.8955 10.2399H65.9824V12.7999H65.2019L65.1863 6.49594ZM66.7004 9.55194C66.9705 9.55701 67.2379 9.49671 67.4809 9.37594C67.7033 9.27425 67.8889 9.10355 68.0116 8.88794C68.136 8.66954 68.2007 8.42083 68.199 8.16794C68.2075 8.02036 68.1835 7.8727 68.1287 7.73594C68.0679 7.59923 67.9771 7.47877 67.8634 7.38394C67.5693 7.20478 67.2291 7.12111 66.8877 7.14394H65.9902V9.54394L66.7004 9.55194Z" fill="white"/>
<path d="M70.4702 6.49597H73.9512L73.8419 7.19197H71.2585V9.19197H73.7092V9.86397H71.2585V12.064H73.9746L73.8965 12.768H70.4702V6.49597Z" fill="white"/>
<path d="M77.9082 6.49597H78.6887V12.8H77.9082V6.49597Z" fill="white"/>
<path d="M81.5843 7.20003H79.6643L79.7502 6.50403H84.2926L84.1911 7.20003H82.3648V12.8H81.5843V7.20003Z" fill="white"/>
<path d="M88.8897 12.4641C88.4548 12.2053 88.1065 11.8176 87.8907 11.3521C87.6428 10.8351 87.5222 10.2638 87.5395 9.68807C87.5277 9.08797 87.6533 8.49339 87.9063 7.95207C88.1452 7.47127 88.5171 7.07335 88.9756 6.80807C89.4797 6.52543 90.0479 6.38466 90.6224 6.40007C91.1675 6.38621 91.7063 6.52152 92.1834 6.79207C92.6163 7.05089 92.9621 7.43877 93.1746 7.90407C93.4099 8.40239 93.5276 8.9505 93.518 9.50407C93.5347 10.1132 93.4061 10.7174 93.1434 11.2641C92.9158 11.7555 92.5521 12.1673 92.0975 12.4481C91.5996 12.7249 91.0405 12.8654 90.4741 12.8561C89.9208 12.8779 89.3724 12.7422 88.8897 12.4641V12.4641ZM91.7073 11.8561C92.0299 11.6336 92.2821 11.3194 92.4331 10.9521C92.6024 10.5341 92.6848 10.0845 92.6751 9.63207C92.6833 9.19045 92.6119 8.75107 92.4643 8.33607C92.331 7.96767 92.0914 7.64958 91.7775 7.42407C91.408 7.18252 90.9742 7.06507 90.5365 7.08807C90.1263 7.06933 89.7203 7.18062 89.374 7.40679C89.0277 7.63296 88.7577 7.96303 88.6009 8.35207C88.4323 8.75365 88.3472 9.18688 88.3512 9.62407C88.3464 10.0701 88.4259 10.513 88.5853 10.9281C88.7303 11.2987 88.977 11.6183 89.2956 11.8481C89.6486 12.0809 90.0623 12.1981 90.4819 12.1841C90.9131 12.2021 91.3397 12.0879 91.7073 11.8561V11.8561Z" fill="white"/>
<path d="M94.7668 6.49597H95.6722L98.9893 11.672C98.9893 11.208 98.9893 10.784 98.9893 10.4V6.49597H99.7698V12.8H98.8956L95.5239 7.55197C95.5239 7.75997 95.5239 8.01597 95.5629 8.29597C95.602 8.57597 95.5629 8.85597 95.5629 9.09597V12.8H94.7825L94.7668 6.49597Z" fill="white"/>
</svg>
