<svg width="128" height="40" viewBox="0 0 128 40" fill="none" xmlns="http://www.w3.org/2000/svg">
<path d="M124 40H4C1.8 40 0 38.2 0 36V4C0 1.8 1.8 0 4 0H124C126.2 0 128 1.8 128 4V36C128 38.2 126.2 40 124 40Z" fill="black"/>
<path d="M27 19.8C27 16.7 29.6 15.2 29.7 15.1C28.2 13 26 12.7 25.2 12.6C23.3 12.4 21.4 13.7 20.5 13.7C19.5 13.7 18 12.6 16.4 12.6C14.3 12.6 12.4 13.8 11.3 15.7C9.10001 19.5 10.7 25.1 12.8 28.2C13.9 29.7 15.1 31.4 16.7 31.3C18.3 31.2 18.9 30.3 20.8 30.3C22.7 30.3 23.2 31.3 24.9 31.3C26.6 31.3 27.7 29.8 28.7 28.3C29.9 26.6 30.4 24.9 30.4 24.8C30.3 24.7 27 23.5 27 19.8Z" fill="white"/>
<path d="M23.8999 10.6C24.6999 9.49998 25.2999 8.09998 25.1999 6.59998C23.9999 6.69998 22.3999 7.39998 21.5999 8.49998C20.7999 9.39998 20.0999 10.9 20.2999 12.3C21.5999 12.4 22.9999 11.6 23.8999 10.6Z" fill="white"/>
<path d="M49.8 31.0999H47.6L46.4 27.2999H42.2L41.1 31.0999H39L43.2 18.2H45.8L49.8 31.0999ZM46 25.7L44.9 22.2999C44.8 21.9999 44.6 21.1 44.2 19.9C44.1 20.4 43.9 21.2999 43.6 22.2999L42.5 25.7H46Z" fill="white"/>
<path d="M60.5 26.4C60.5 28 60.1 29.2 59.2 30.2C58.4 31 57.5 31.4 56.3 31.4C55.1 31.4 54.2 30.9999 53.7 30.0999V35H51.6V25C51.6 24 51.6 23 51.5 21.9H53.3L53.4 23.4C54.1 22.3 55.1 21.7 56.5 21.7C57.6 21.7 58.5 22.1 59.2 23C60.1 23.8 60.5 24.9 60.5 26.4ZM58.4 26.4C58.4 25.5 58.2 24.7 57.8 24.2C57.4 23.6 56.8 23.2999 56 23.2999C55.5 23.2999 55 23.4999 54.6 23.7999C54.2 24.0999 53.9 24.5999 53.8 25.0999C53.7 25.3999 53.7 25.6 53.7 25.7V27.2999C53.7 27.9999 53.9 28.5 54.3 29C54.7 29.5 55.3 29.7 55.9 29.7C56.7 29.7 57.3 29.3999 57.7 28.7999C58.2 28.1999 58.4 27.4 58.4 26.4Z" fill="white"/>
<path d="M71.2 26.4C71.2 28 70.7999 29.2 69.8999 30.2C69.0999 31 68.1999 31.4 66.9999 31.4C65.7999 31.4 64.8999 30.9999 64.3999 30.0999V35H62.2999V25C62.2999 24 62.3 23 62.2 21.9H63.9999L64.1 23.4C64.8 22.3 65.8 21.7 67.2 21.7C68.3 21.7 69.1999 22.1 69.8999 23C70.7999 23.8 71.2 24.9 71.2 26.4ZM69.1 26.4C69.1 25.5 68.8999 24.7 68.4999 24.2C68.0999 23.6 67.5 23.2999 66.7 23.2999C66.2 23.2999 65.6999 23.4999 65.2999 23.7999C64.8999 24.0999 64.5999 24.5999 64.4999 25.0999C64.3999 25.3999 64.3999 25.6 64.3999 25.7V27.2999C64.3999 27.9999 64.5999 28.5 64.9999 29C65.3999 29.5 66 29.7 66.6 29.7C67.4 29.7 67.9999 29.3999 68.3999 28.7999C68.8999 28.1999 69.1 27.4 69.1 26.4Z" fill="white"/>
<path d="M83.2001 27.5C83.2001 28.6 82.8001 29.5 82.1001 30.2C81.3001 31 80.1001 31.3 78.6001 31.3C77.2001 31.3 76.1 31 75.3 30.5L75.8 28.8C76.7 29.3 77.7 29.6 78.8 29.6C79.6 29.6 80.2001 29.4 80.6001 29.1C81.0001 28.7 81.2001 28.3 81.2001 27.7C81.2001 27.2 81.0001 26.7 80.7001 26.4C80.3001 26 79.7 25.7 78.9 25.4C76.6 24.6 75.5 23.3 75.5 21.7C75.5 20.6 75.9001 19.8 76.7001 19.1C77.5001 18.4 78.5 18.1 79.9 18.1C81.1 18.1 82 18.3 82.8 18.7L82.3 20.4C81.6 20 80.8 19.8 79.8 19.8C79.1 19.8 78.5001 20 78.1001 20.3C77.8001 20.6 77.6001 21 77.6001 21.5C77.6001 22 77.8001 22.4 78.2001 22.8C78.5001 23.1 79.2001 23.4 80.1001 23.8C81.2001 24.2 82.0001 24.8 82.6001 25.4C82.9001 25.9 83.2001 26.6 83.2001 27.5Z" fill="white"/>
<path d="M90 23.4H87.7V27.9C87.7 29 88.1001 29.6 88.9001 29.6C89.3001 29.6 89.6 29.6 89.8 29.5L89.9001 31.1C89.5001 31.3 89 31.3 88.3 31.3C87.5 31.3 86.8001 31.1 86.4001 30.6C85.9001 30.1 85.7 29.3 85.7 28.1V23.4H84.3V21.8H85.7V20.1L87.7 19.5V21.8H90V23.4Z" fill="white"/>
<path d="M100.3 26.4C100.3 27.8 99.9 29 99.1 29.9C98.2 30.8 97.1 31.3 95.7 31.3C94.3 31.3 93.2 30.8 92.4 29.9C91.6 29 91.2 27.9 91.2 26.5C91.2 25.1 91.6 23.9 92.5 23C93.3 22.1 94.5 21.6 95.9 21.6C97.3 21.6 98.4 22.1 99.2 23C99.9 23.9 100.3 25 100.3 26.4ZM98.1 26.5C98.1 25.6 97.9 24.9 97.5 24.3C97.1 23.6 96.4 23.2 95.6 23.2C94.8 23.2 94.1 23.6 93.7 24.3C93.3 24.9 93.1 25.7 93.1 26.5C93.1 27.4 93.3 28.1 93.7 28.7C94.1 29.4 94.8 29.8 95.6 29.8C96.4 29.8 97 29.4 97.5 28.7C97.9 28.1 98.1 27.3 98.1 26.5Z" fill="white"/>
<path d="M107 23.6C106.8 23.6 106.6 23.5 106.3 23.5C105.6 23.5 105 23.8 104.6 24.3C104.3 24.8 104.1 25.4 104.1 26.1V31H102V24.6C102 23.5 102 22.6 101.9 21.7H103.7L103.8 23.5H103.9C104.1 22.9 104.5 22.4 104.9 22C105.4 21.7 105.9 21.5 106.4 21.5C106.6 21.5 106.8 21.5 106.9 21.5V23.6H107Z" fill="white"/>
<path d="M116.2 26C116.2 26.4 116.2 26.7 116.1 26.9H109.9C109.9 27.8 110.2 28.5 110.8 29C111.3 29.4 112 29.7 112.8 29.7C113.7 29.7 114.6 29.6 115.3 29.3L115.6 30.7C114.7 31.1 113.7 31.3 112.5 31.3C111.1 31.3 109.9 30.9 109.1 30C108.3 29.2 107.9 28 107.9 26.6C107.9 25.2 108.3 24 109 23.1C109.8 22.1 110.9 21.6 112.3 21.6C113.6 21.6 114.7 22.1 115.3 23.1C116 23.9 116.2 24.9 116.2 26ZM114.3 25.5C114.3 24.9 114.2 24.4 113.9 23.9C113.5 23.3 113 23 112.3 23C111.6 23 111.1 23.3 110.7 23.8C110.4 24.2 110.2 24.8 110.1 25.4H114.3V25.5Z" fill="white"/>
<path d="M45.3999 10.3C45.3999 11.4 45.0999 12.3 44.3999 12.9C43.7999 13.4 42.9 13.7001 41.7 13.7001C41.1 13.7001 40.6 13.7 40.2 13.6V7.40005C40.7 7.30005 41.2999 7.30005 41.9999 7.30005C43.0999 7.30005 43.8999 7.50005 44.4999 8.00005C44.9999 8.50005 45.3999 9.30005 45.3999 10.3ZM44.2999 10.3C44.2999 9.60005 44.1 9.00005 43.7 8.60005C43.3 8.20005 42.6999 8.00005 41.9999 8.00005C41.6999 8.00005 41.4 8.00005 41.2 8.10005V12.8C41.3 12.8 41.5999 12.8 41.8999 12.8C42.6999 12.8 43.3 12.6001 43.7 12.2001C44.1 11.8001 44.2999 11.1 44.2999 10.3Z" fill="white"/>
<path d="M51 11.3C51 12 50.8 12.6 50.4 13C50 13.5 49.4 13.7 48.7 13.7C48 13.7 47.5 13.5 47.1 13C46.7 12.6 46.5 12 46.5 11.3C46.5 10.6 46.7 10 47.1 9.60003C47.5 9.10003 48.1 8.90002 48.8 8.90002C49.5 8.90002 50 9.10003 50.4 9.60003C50.8 10 51 10.6 51 11.3ZM50 11.3C50 10.9 49.9 10.5 49.7 10.2C49.5 9.80003 49.2 9.70003 48.8 9.70003C48.4 9.70003 48.1 9.90003 47.9 10.2C47.7 10.5 47.6 10.9 47.6 11.3C47.6 11.7 47.7 12.1 47.9 12.4C48.1 12.8 48.4 12.9 48.8 12.9C49.2 12.9 49.5 12.7 49.7 12.3C49.9 12.1 50 11.7 50 11.3Z" fill="white"/>
<path d="M58.7 9L57.3 13.6H56.4L55.8 11.6C55.6 11.1 55.5 10.6 55.4 10.1C55.3 10.6 55.2 11.1 55 11.6L54.4 13.6H53.5L52 9H53L53.5 11.2C53.6 11.7 53.7 12.2 53.8 12.7C53.9 12.3 54 11.8 54.2 11.2L54.8 9H55.6L56.2 11.1C56.4 11.6 56.5 12.1 56.6 12.6C56.7 12.1 56.8 11.6 56.9 11.1L57.5 9H58.7Z" fill="white"/>
<path d="M63.9 13.6H62.9V11C62.9 10.2 62.6 9.80005 62 9.80005C61.7 9.80005 61.5 9.90005 61.3 10.1C61.1 10.3001 61 10.6 61 10.9V13.6H60V10.3C60 9.90005 60 9.50005 60 9.00005H60.9V9.70005C61 9.50005 61.2 9.30005 61.4 9.10005C61.7 8.90005 62 8.80005 62.3 8.80005C62.7 8.80005 63.1 8.90005 63.4 9.20005C63.8 9.50005 63.9 10.0001 63.9 10.7001V13.6Z" fill="white"/>
<path d="M66.7 13.6H65.7V6.90002H66.7V13.6Z" fill="white"/>
<path d="M72.7 11.3C72.7 12 72.5 12.6 72.1 13C71.7 13.5 71.0999 13.7 70.3999 13.7C69.6999 13.7 69.1999 13.5 68.7999 13C68.3999 12.6 68.2 12 68.2 11.3C68.2 10.6 68.3999 10 68.7999 9.60003C69.1999 9.20003 69.7999 8.90002 70.4999 8.90002C71.1999 8.90002 71.7 9.10003 72.1 9.60003C72.5 10 72.7 10.6 72.7 11.3ZM71.7 11.3C71.7 10.9 71.5999 10.5 71.3999 10.2C71.1999 9.80003 70.8999 9.70003 70.4999 9.70003C70.0999 9.70003 69.8 9.90003 69.6 10.2C69.4 10.5 69.2999 10.9 69.2999 11.3C69.2999 11.7 69.4 12.1 69.6 12.4C69.8 12.8 70.0999 12.9 70.4999 12.9C70.8999 12.9 71.1999 12.7 71.3999 12.3C71.5999 12.1 71.7 11.7 71.7 11.3Z" fill="white"/>
<path d="M77.5999 13.6H76.6999L76.5999 13.1C76.2999 13.5 75.7999 13.7 75.2999 13.7C74.8999 13.7 74.4999 13.6 74.2999 13.3C74.0999 13 73.8999 12.7 73.8999 12.4C73.8999 11.8 74.0999 11.4 74.5999 11.1C75.0999 10.8 75.6999 10.7 76.5999 10.7V10.6C76.5999 10 76.2999 9.70003 75.6999 9.70003C75.1999 9.70003 74.8999 9.80002 74.4999 10L74.2999 9.30002C74.6999 9.00002 75.1999 8.90002 75.8999 8.90002C77.0999 8.90002 77.6999 9.50002 77.6999 10.8V12.5C77.5999 13 77.5999 13.3 77.5999 13.6ZM76.5999 12V11.3C75.4999 11.3 74.8999 11.6 74.8999 12.2C74.8999 12.4 74.9999 12.6 75.0999 12.7C75.1999 12.8 75.3999 12.9 75.5999 12.9C75.7999 12.9 75.9999 12.8 76.1999 12.7C76.3999 12.6 76.4999 12.4 76.5999 12.2C76.5999 12.2 76.5999 12.1 76.5999 12Z" fill="white"/>
<path d="M83.4001 13.6H82.5001V12.9C82.2001 13.5 81.7001 13.7 81.0001 13.7C80.4001 13.7 80.0001 13.5 79.6001 13.1C79.2001 12.7 79.1001 12.1 79.1001 11.4C79.1001 10.7 79.3001 10.1 79.7001 9.6C80.1001 9.2 80.6001 9 81.1001 9C81.7001 9 82.1001 9.2 82.4001 9.6V7H83.4001V12.4C83.4001 12.8 83.4001 13.2 83.4001 13.6ZM82.4001 11.7V10.9C82.4001 10.8 82.4001 10.7 82.4001 10.6C82.3001 10.4 82.2001 10.2 82.0001 10C81.8001 9.8 81.6001 9.8 81.3001 9.8C80.9001 9.8 80.6001 10 80.4001 10.3C80.2001 10.6 80.1001 11 80.1001 11.5C80.1001 12 80.2001 12.3 80.4001 12.6C80.6001 12.9 80.9001 13.1 81.3001 13.1C81.6001 13.1 81.9001 13 82.1001 12.7C82.3001 12.3 82.4001 12 82.4001 11.7Z" fill="white"/>
<path d="M92.1001 11.3C92.1001 12 91.9001 12.6 91.5001 13C91.1001 13.5 90.5001 13.7 89.8001 13.7C89.1001 13.7 88.6001 13.5 88.2001 13C87.8001 12.6 87.6001 12 87.6001 11.3C87.6001 10.6 87.8001 10 88.2001 9.60003C88.6001 9.10003 89.2001 8.90002 89.9001 8.90002C90.6001 8.90002 91.1001 9.10003 91.5001 9.60003C91.9001 10 92.1001 10.6 92.1001 11.3ZM91.0001 11.3C91.0001 10.9 90.9001 10.5 90.7001 10.2C90.5001 9.80003 90.2001 9.70003 89.8001 9.70003C89.4001 9.70003 89.1001 9.90003 88.9001 10.2C88.7001 10.5 88.6001 10.9 88.6001 11.3C88.6001 11.7 88.7001 12.1 88.9001 12.4C89.1001 12.8 89.4001 12.9 89.8001 12.9C90.2001 12.9 90.5001 12.7 90.7001 12.3C90.9001 12.1 91.0001 11.7 91.0001 11.3Z" fill="white"/>
<path d="M97.6 13.6H96.6V11C96.6 10.2 96.3 9.80005 95.7 9.80005C95.4 9.80005 95.2 9.90005 95 10.1C94.8 10.3001 94.7 10.6 94.7 10.9V13.6H93.7V10.3C93.7 9.90005 93.7 9.50005 93.7 9.00005H94.6V9.70005C94.7 9.50005 94.9 9.30005 95.1 9.10005C95.4 8.90005 95.7 8.80005 96 8.80005C96.4 8.80005 96.8 8.90005 97.1 9.20005C97.5 9.50005 97.6 10.0001 97.6 10.7001V13.6Z" fill="white"/>
<path d="M104.4 9.80002H103.3V12C103.3 12.6 103.5 12.8 103.9 12.8C104.1 12.8 104.2 12.8 104.4 12.8V13.6C104.2 13.7 103.9 13.7 103.6 13.7C103.2 13.7 102.9 13.6 102.7 13.3C102.5 13.1 102.4 12.6 102.4 12.1V9.80002H101.7V9.00002H102.4V8.20003L103.4 7.90002V9.00002H104.5V9.80002H104.4Z" fill="white"/>
<path d="M109.8 13.6H108.8V11C108.8 10.2 108.5 9.80002 107.9 9.80002C107.4 9.80002 107.1 10 106.9 10.5C106.9 10.6 106.9 10.7 106.9 10.9V13.6H105.9V6.90002H106.9V9.70003C107.2 9.20003 107.7 8.90002 108.3 8.90002C108.7 8.90002 109.1 9.00002 109.3 9.30002C109.6 9.60002 109.8 10.2 109.8 10.8V13.6Z" fill="white"/>
<path d="M115.3 11.1C115.3 11.3 115.3 11.4 115.3 11.6H112.3C112.3 12.1 112.5 12.4 112.7 12.6C113 12.8 113.3 12.9 113.7 12.9C114.2 12.9 114.6 12.8 114.9 12.7L115.1 13.4C114.7 13.6 114.2 13.7 113.6 13.7C112.9 13.7 112.3 13.5 111.9 13.1C111.5 12.7 111.3 12.1 111.3 11.4C111.3 10.7 111.5 10.1 111.9 9.7C112.3 9.2 112.8 9 113.5 9C114.2 9 114.7 9.2 115 9.7C115.2 10 115.3 10.5 115.3 11.1ZM114.4 10.8C114.4 10.5 114.3 10.2 114.2 10C114 9.7 113.8 9.6 113.4 9.6C113.1 9.6 112.8 9.7 112.6 10C112.4 10.2 112.3 10.5 112.3 10.8H114.4Z" fill="white"/>
</svg>
