<svg width="10" height="14" viewBox="0 0 10 14" fill="none" xmlns="http://www.w3.org/2000/svg">
<circle cx="1.10526" cy="12.8947" r="1.10526" transform="rotate(-90 1.10526 12.8947)" fill="#EDEDED"/>
<circle cx="4.78959" cy="9.94735" r="1.10526" transform="rotate(-90 4.78959 9.94735)" fill="#EDEDED"/>
<circle cx="4.78959" cy="12.8947" r="1.10526" transform="rotate(-90 4.78959 12.8947)" fill="#EDEDED"/>
<circle cx="8.47367" cy="12.8947" r="1.10526" transform="rotate(-90 8.47367 12.8947)" fill="#EDEDED"/>
<circle cx="1.10526" cy="9.94735" r="1.10526" transform="rotate(-90 1.10526 9.94735)" fill="#EDEDED"/>
<circle cx="4.78959" cy="7.00002" r="1.10526" transform="rotate(-90 4.78959 7.00002)" fill="#EDEDED"/>
<circle cx="8.47367" cy="9.94735" r="1.10526" transform="rotate(-90 8.47367 9.94735)" fill="#EDEDED"/>
<circle cx="1.10526" cy="7.00002" r="1.10526" transform="rotate(-90 1.10526 7.00002)" fill="#EDEDED"/>
<circle cx="4.78959" cy="4.05263" r="1.10526" transform="rotate(-90 4.78959 4.05263)" fill="#EDEDED"/>
<circle cx="4.78959" cy="1.10525" r="1.10526" transform="rotate(-90 4.78959 1.10525)" fill="#EDEDED"/>
<circle cx="8.47367" cy="7.00002" r="1.10526" transform="rotate(-90 8.47367 7.00002)" fill="#EDEDED"/>
</svg>
