<svg width="177" height="109" viewBox="0 0 177 109" fill="none" xmlns="http://www.w3.org/2000/svg">
<path d="M13.759 86.5206V91.1858H11.695V88.4808H2.62311V91.1858H0.513367V86.5206H1.86711C2.13786 85.4667 2.27148 83.8156 2.27148 81.346V75.6339H12.2576V86.5241L13.759 86.5206ZM10.1373 86.5557V77.559H4.3988V81.346C4.41376 83.0924 4.26662 84.8365 3.95927 86.5557H10.1373Z" fill="#0C0005"/>
<path d="M20.2711 86.9281C21.7619 86.9281 22.7078 86.352 23.2845 85.6072L24.6699 86.8262C23.826 87.8414 22.4019 88.6529 20.2711 88.6529C16.9201 88.6529 15.0916 86.4187 15.0916 83.4116C15.0916 80.2991 17.124 78.1703 20.1023 78.1703C23.0805 78.1703 25.025 80.2324 25.025 83.4116C25.0363 83.6283 25.0125 83.8454 24.9547 84.0545H17.1381C17.3596 85.811 18.4778 86.9281 20.2711 86.9281ZM17.1557 82.4982H22.9434C22.6726 80.8401 21.6248 79.86 20.1023 79.86C18.5094 79.86 17.4616 80.8753 17.1557 82.4982Z" fill="#0C0005"/>
<path d="M37.1912 83.4117C37.1912 86.5206 35.3662 88.653 32.7607 88.653C32.1223 88.6742 31.4876 88.5476 30.9063 88.2831C30.325 88.0186 29.8128 87.6234 29.4097 87.1284V91.8638H27.3773V78.346H29.1355L29.2691 79.9338C29.6645 79.3805 30.1886 78.9316 30.7962 78.6256C31.4039 78.3196 32.0768 78.1658 32.7572 78.1773C35.4331 78.1703 37.1912 80.2324 37.1912 83.4117ZM35.1271 83.4117C35.1271 81.2793 34.0125 79.8987 32.2192 79.8987C30.4259 79.8987 29.2726 81.2828 29.2726 83.4117C29.2726 85.5405 30.4224 86.9246 32.2192 86.9246C34.016 86.9246 35.1271 85.5405 35.1271 83.4117Z" fill="#0C0005"/>
<path d="M48.2919 83.7137L46.9065 85.1189V88.4984H44.8741V85.1541L43.4676 83.7313L40.3523 88.4984H37.8909L42.0541 82.3788L38.0386 78.3459H40.6125L44.8741 82.8425V78.3459H46.9065V82.8074L51.1717 78.3459H53.7069L49.7476 82.3367L53.8792 88.4879H51.4425L48.2919 83.7137Z" fill="#0C0005"/>
<path d="M64.1325 86.7243V88.4808C63.9021 88.5343 63.6657 88.5579 63.4293 88.5511C62.1775 88.5511 61.6008 88.1119 61.4672 86.9281C61.0561 87.4788 60.5186 87.9229 59.9 88.223C59.2814 88.5232 58.5997 88.6706 57.9123 88.6529C55.9151 88.6529 54.5965 87.4339 54.5965 85.6775C54.5965 83.1727 56.9981 82.6317 58.9601 82.3296C60.4827 82.1259 61.2281 81.9783 61.2281 81.2125C61.2281 80.4467 60.3842 79.86 59.0972 79.86C58.5244 79.8671 57.959 79.9907 57.4354 80.2232C56.9119 80.4557 56.4413 80.7923 56.0522 81.2125L54.7969 79.8951C55.9779 78.7607 57.5611 78.1404 59.1992 78.1703C61.636 78.1703 63.1234 79.4209 63.1234 81.5181V86.085C63.1087 86.1727 63.1152 86.2626 63.1424 86.3473C63.1695 86.432 63.2165 86.509 63.2795 86.5719C63.3424 86.6347 63.4195 86.6817 63.5042 86.7088C63.589 86.736 63.679 86.7425 63.7668 86.7278L64.1325 86.7243ZM61.1543 84.6166V83.2992C60.7816 83.5346 60.1732 83.6505 59.1922 83.8051C57.9052 84.0088 56.5867 84.2126 56.5867 85.5299C56.5867 86.4784 57.195 86.9843 58.2428 86.9843C59.8005 86.9948 61.1543 85.9128 61.1543 84.6271V84.6166Z" fill="#0C0005"/>
<path d="M74.8254 85.7232C74.8254 87.5499 73.5068 88.4949 71.3092 88.4949H66.3864V78.3459H70.9189C73.1552 78.3459 74.5406 79.1574 74.5406 80.9842C74.5656 81.4705 74.4391 81.9527 74.1784 82.3642C73.9176 82.7757 73.5356 83.0962 73.0848 83.2816C73.6083 83.4324 74.0652 83.7558 74.3813 84.1992C74.6973 84.6425 74.8539 85.1796 74.8254 85.7232ZM68.3626 82.5615H70.9329C72.0862 82.5615 72.5574 82.1891 72.5574 81.2441C72.5574 80.4326 71.9843 79.9935 71.0349 79.9935H68.3626V82.5615ZM72.7965 85.5054C72.7965 84.6271 72.1179 84.1002 70.9681 84.1002H68.3626V86.9105H71.1052C72.1882 86.8578 72.7965 86.352 72.7965 85.4737V85.5054Z" fill="#0C0005"/>
<path d="M86.334 78.3459V88.4879H84.3016V84.2231H79.3789V88.4808H77.35V78.3459H79.3789V82.4034H84.3016V78.3459H86.334Z" fill="#0C0005"/>
<path d="M89.583 74.8892H91.8193V76.9197H89.5865L89.583 74.8892ZM89.685 78.3389H91.7138V88.4809H89.685V78.3389Z" fill="#0C0005"/>
<path d="M109.481 88.4808H107.452V80.1305H102.53V88.4808H100.497V78.3459H109.499L109.481 88.4808Z" fill="#0C0005"/>
<path d="M111.918 83.4116C111.918 80.2991 114.028 78.1703 117.062 78.1703C120.178 78.1703 122.207 80.2324 122.207 83.4116C122.207 86.5206 120.097 88.6529 117.062 88.6529C113.951 88.6529 111.918 86.5873 111.918 83.4116ZM120.143 83.4116C120.143 81.2793 118.926 79.8987 117.062 79.8987C115.199 79.8987 113.982 81.2828 113.982 83.4116C113.982 85.5405 115.202 86.9246 117.062 86.9246C118.922 86.9246 120.143 85.5405 120.143 83.4116Z" fill="#0C0005"/>
<path d="M123.898 83.4116C123.898 80.2991 125.965 78.1703 128.975 78.1703C131.176 78.1703 132.935 79.2839 133.511 81.2125L131.581 81.8202C131.141 80.6364 130.227 79.8951 128.975 79.8951C127.115 79.8951 125.965 81.2793 125.965 83.4081C125.965 85.5369 127.115 86.9211 128.975 86.9211C129.559 86.9186 130.126 86.7302 130.594 86.3833C131.063 86.0364 131.409 85.5492 131.581 84.9924L133.511 85.6002C132.935 87.5288 131.141 88.6459 128.975 88.6459C125.965 88.6529 123.898 86.5206 123.898 83.4116Z" fill="#0C0005"/>
<path d="M144.443 88.4808H142.411V80.1305H138.234V83.7805C138.234 87.4691 137.453 88.5511 135.491 88.5511C135.174 88.5505 134.858 88.527 134.545 88.4808V86.6225H135.069C135.948 86.6225 136.219 86.3871 136.219 83.5803V78.3459H144.443V88.4808Z" fill="#0C0005"/>
<path d="M156.933 78.3459L153.174 88.8602C152.531 90.687 151.416 92.0219 149.689 92.0219C147.657 92.0219 146.778 90.6167 146.778 89.0464L148.638 88.7408C148.606 89.5207 148.842 90.1952 149.721 90.1952C150.263 90.1952 150.67 89.8228 151.043 89.1413L146.268 78.3459H148.504L152.056 86.8333L154.834 78.3459H156.933Z" fill="#0C0005"/>
<path d="M166.036 80.1973H160.762V88.4808H158.73V78.3459H166.043L166.036 80.1973Z" fill="#0C0005"/>
<path d="M177 78.3459V88.4879H175.003V81.1106L170.08 88.4879H167.97V78.3459H169.968V85.6494L174.89 78.3459H177Z" fill="#0C0005"/>
<path d="M0.843903 103.759C0.843903 100.646 2.95364 98.5173 5.98815 98.5173C9.10353 98.5173 11.1324 100.579 11.1324 103.759C11.1324 106.868 9.02266 108.996 5.98815 108.996C2.87629 108.996 0.843903 106.934 0.843903 103.759ZM9.06835 103.759C9.06835 101.626 7.85175 100.246 5.98815 100.246C4.12455 100.246 2.90793 101.63 2.90793 103.759C2.90793 105.888 4.12806 107.272 5.98815 107.272C7.84824 107.272 9.06835 105.888 9.06835 103.759Z" fill="#0C0005"/>
<path d="M22.5742 98.6859V108.828H20.5418V104.57H15.6191V108.828H13.5867V98.6859H15.6191V102.743H20.5418V98.6859H22.5742Z" fill="#0C0005"/>
<path d="M34.5048 108.828H32.4759V100.478H28.2775V104.128C28.2775 107.816 27.5004 108.898 25.5349 108.898C25.2183 108.897 24.9022 108.874 24.589 108.828V106.97H25.1305C26.0095 106.97 26.2803 106.734 26.2803 103.927V98.6859H34.5048V108.828Z" fill="#0C0005"/>
<path d="M46.3298 107.071V108.828C46.0994 108.881 45.8631 108.905 45.6266 108.898C44.3748 108.898 43.7982 108.455 43.6646 107.275C43.2536 107.826 42.7161 108.27 42.0974 108.569C41.4787 108.869 40.7969 109.015 40.1096 108.996C38.1124 108.996 36.7938 107.781 36.7938 106.021C36.7938 103.52 39.1954 102.979 41.161 102.677C42.6835 102.473 43.4254 102.325 43.4254 101.56C43.4254 100.794 42.5816 100.207 41.2946 100.207C40.7217 100.214 40.1563 100.338 39.6328 100.57C39.1093 100.803 38.6386 101.139 38.2495 101.56L36.9977 100.242C38.1771 99.1072 39.7594 98.4868 41.3966 98.5173C43.8333 98.5173 45.3207 99.768 45.3207 101.865V106.432C45.306 106.52 45.3125 106.61 45.3397 106.694C45.3669 106.779 45.4139 106.856 45.4768 106.919C45.5397 106.982 45.6168 107.029 45.7016 107.056C45.7863 107.083 45.8763 107.09 45.9641 107.075L46.3298 107.071ZM43.3516 104.964V103.646C42.9789 103.882 42.3705 103.998 41.3895 104.152C40.1026 104.356 38.784 104.56 38.784 105.877C38.784 106.822 39.3923 107.331 40.4402 107.331C41.9978 107.342 43.3516 106.26 43.3516 104.974V104.964Z" fill="#0C0005"/>
<path d="M57.6346 98.686V108.828H55.6373V101.451L50.7146 108.828H48.6049V98.686H50.6021V105.989L55.5248 98.686H57.6346ZM50.0184 95.3381L51.6113 95.0676C51.6579 95.4293 51.8348 95.7616 52.1089 96.0024C52.3829 96.2432 52.7354 96.376 53.1004 96.376C53.4653 96.376 53.8178 96.2432 54.0919 96.0024C54.366 95.7616 54.5429 95.4293 54.5895 95.0676L56.1788 95.3381C56.0101 96.8592 54.8602 97.7375 53.0986 97.7375C51.337 97.7375 50.1872 96.8592 50.0184 95.3381Z" fill="#0C0005"/>
<path d="M69.8183 98.6859V108.828H67.7859V104.57H62.8456V108.828H60.8167V98.6859H62.8456V102.743H67.7859V98.6859H69.8183Z" fill="#0C0005"/>
<path d="M91.3078 58.5606C104.149 58.5606 111.287 58.5606 115.953 53.8989C120.619 49.2372 120.616 42.1094 120.616 29.2801C120.616 16.4508 120.616 9.31599 115.953 4.65781C111.291 -0.000373911 104.149 0.0066529 91.3078 0.0066529C78.4665 0.0066529 71.325 0.0066535 66.6625 4.66483C62 9.32301 62 16.4543 62 29.2871C62 42.12 62 49.2478 66.6625 53.9059C71.325 58.5641 78.463 58.5676 91.3078 58.5676" fill="#0C0005"/>
<path d="M102.314 23.4911C101.807 23.4798 101.303 23.5703 100.832 23.7572C100.361 23.944 99.9328 24.2235 99.5721 24.579C99.2113 24.9345 98.9258 25.3588 98.7323 25.8266C98.5388 26.2945 98.4413 26.7965 98.4457 27.3027C98.4525 28.102 98.7259 28.8763 99.2226 29.503C99.7194 30.1297 100.411 30.5731 101.188 30.7629L98.0483 35.5722H100.981L103.657 31.0967H105.657V35.5722H108.119V23.4911H102.314ZM102.665 29.0521C102.445 29.0548 102.227 29.0124 102.024 28.9277C101.821 28.8429 101.637 28.7175 101.484 28.5593C101.331 28.401 101.213 28.2132 101.135 28.0074C101.058 27.8015 101.023 27.582 101.034 27.3624C101.034 26.4631 101.603 25.6059 102.665 25.6059H105.682V29.0521H102.665Z" fill="white"/>
<path d="M88.8957 23.4912L88.0835 25.7254L91.4204 25.7078L89.4443 32.9445C88.8817 35.0523 91.0828 36.6542 92.9605 35.4036L97.2327 32.5089L95.9739 30.6611L91.7052 33.612L94.5815 23.4841L88.8957 23.4912Z" fill="white"/>
<path d="M95.1931 20.4103C95.1931 21.2499 94.8204 21.9349 93.4983 21.9349C92.2359 21.9349 91.8035 21.2499 91.8035 20.4103C91.8035 19.5707 92.2359 18.8821 93.4983 18.8821C94.8204 18.8821 95.1931 19.5847 95.1931 20.4103Z" fill="white"/>
<path d="M84.8519 33.3344V20.6878H75.4496V27.4467C75.4496 30.6084 74.5283 32.5897 73.9833 33.3415H72.8687V38.8603H75.2526V35.5933H84.1663V38.8603H86.5503V33.3344H84.8519ZM77.8195 27.2992V22.9256H82.3906V33.3344H76.4693C77.0108 32.4562 77.809 30.2255 77.809 27.2992" fill="white"/>
<path d="M28.3164 49.3711C26.1017 47.6832 24.5971 45.2304 24.0969 42.4927H17.2297V12.759C20.9323 14.6103 23.5976 18.6783 23.9106 22.8939L24.9478 31.2512L24.4274 31.1775C23.8862 31.2023 23.3737 31.4283 22.9906 31.811C22.6074 32.1938 22.3812 32.7058 22.3564 33.2466C22.3721 33.7229 22.5489 34.1799 22.858 34.5429C23.1671 34.9059 23.5902 35.1536 24.0583 35.2455L25.3171 35.5405C27.3881 31.6201 28.5731 27.7734 28.5731 24.004C28.5731 20.5999 28.1301 17.1994 28.0562 13.7216C28.0628 12.222 28.6151 10.7761 29.6104 9.65356C30.6056 10.7761 31.158 12.222 31.1646 13.7216C31.1646 17.1994 30.6477 20.5999 30.6477 24.004C30.6477 27.7734 31.8291 31.6201 33.9037 35.5405L35.1625 35.2455C35.6306 35.1536 36.0537 34.9059 36.3628 34.5429C36.6718 34.1799 36.8486 33.7229 36.8643 33.2466C36.8403 32.7055 36.6144 32.1931 36.2311 31.8102C35.8478 31.4272 35.3348 31.2015 34.7933 31.1775L34.2729 31.2512L35.3278 22.8939C35.8446 18.6783 38.2884 14.6103 42.0086 12.759V42.4927H35.1238C34.6069 45.3031 33.1231 47.8183 30.9044 49.3711C30.375 49.7284 29.9426 50.2112 29.6456 50.7762C29.3485 50.2112 28.916 49.7284 28.3867 49.3711H28.3164ZM20.5385 32.2138C20.8756 31.0781 21.6477 30.1212 22.6869 29.551L21.8008 22.6726C21.5239 20.595 20.6493 18.6425 19.2832 17.0519V32.2138H20.5385ZM24.0196 40.4236C24.0284 39.4267 24.1523 38.4342 24.3888 37.4656L23.4253 37.2408C22.7341 37.0299 22.1073 36.6483 21.6027 36.1313C21.0981 35.6143 20.7321 34.9786 20.5385 34.2829H19.3536V40.4236H24.0196ZM28.6082 40.4236C28.6057 39.8065 28.379 39.2113 27.9702 38.7487C27.5615 38.2861 26.9986 37.9874 26.386 37.9083C26.1571 38.7273 26.0389 39.5732 26.0344 40.4236H28.6082ZM28.6082 42.4927H26.3157C26.701 44.1163 27.4894 45.6168 28.6082 46.8558V42.4927ZM31.8643 36.0605C30.9452 34.4427 30.2014 32.7316 29.6456 30.9561C29.09 32.7322 28.345 34.4435 27.4233 36.0605C28.2944 36.3205 29.0682 36.8342 29.6456 37.5359C30.221 36.8337 30.9938 36.3198 31.8643 36.0605ZM33.2708 40.4236C33.2623 39.5723 33.138 38.7261 32.9015 37.9083C32.2896 37.9882 31.7275 38.2872 31.3195 38.7497C30.9115 39.2123 30.6853 39.807 30.6828 40.4236H33.2708ZM32.9754 42.4927H30.6828V46.8558C31.8017 45.6168 32.5901 44.1163 32.9754 42.4927ZM39.934 40.4236V34.2829H38.6787C38.4845 34.9788 38.1179 35.6147 37.6127 36.1316C37.1075 36.6486 36.4801 37.0301 35.7884 37.2408L34.8285 37.4656C35.0591 38.4348 35.177 39.4274 35.1801 40.4236H39.934ZM39.934 32.2138V17.0519C38.5432 18.6263 37.6661 20.5871 37.4199 22.6726L36.6041 29.551C37.6434 30.1212 38.4154 31.0781 38.7526 32.2138H39.934Z" fill="#0C0005"/>
<path d="M29.2691 0.916879C41.8853 0.916879 48.8369 0.916879 53.2217 5.29754C57.6064 9.67819 57.6099 16.6233 57.6099 29.2278C57.6099 41.8323 57.6099 48.7774 53.2217 53.1581C48.8334 57.5387 41.8853 57.5422 29.2691 57.5422C16.6529 57.5422 9.70128 57.5422 5.31654 53.1581C0.9318 48.7739 0.92829 41.8323 0.92829 29.2278C0.92829 16.6233 0.928284 9.67819 5.31654 5.29754C9.70479 0.916879 16.6529 0.916879 29.2691 0.916879ZM29.2691 0C16.4489 0 9.32152 -6.70043e-07 4.65549 4.65115C-0.0105519 9.30231 2.13936e-07 16.4196 2.13936e-07 29.2418C2.13936e-07 42.0641 -3.018e-06 49.1708 4.65549 53.8325C9.31098 58.4942 16.4384 58.4837 29.2691 58.4837C42.0998 58.4837 49.2167 58.4837 53.8827 53.8325C58.5487 49.1814 58.5382 42.0606 58.5382 29.2418C58.5382 16.4231 58.5382 9.31285 53.8827 4.65115C49.2272 -0.0105398 42.0893 0.00702473 29.2691 0.00702473" fill="#0C0005"/>
</svg>
