<svg width="177" height="109" viewBox="0 0 177 109" fill="none" xmlns="http://www.w3.org/2000/svg">
<g clip-path="url(#clip0)">
<path d="M13.759 86.5206V91.1858H11.695V88.4808H2.62311V91.1858H0.513367V86.5206H1.86711C2.13786 85.4667 2.27148 83.8156 2.27148 81.346V75.6339H12.2576V86.5241L13.759 86.5206ZM10.1373 86.5557V77.559H4.3988V81.346C4.41376 83.0924 4.26662 84.8365 3.95927 86.5557H10.1373Z" fill="#0C0005"/>
<path d="M20.2711 86.9281C21.7619 86.9281 22.7078 86.352 23.2845 85.6072L24.6699 86.8262C23.826 87.8414 22.4019 88.6529 20.2711 88.6529C16.9201 88.6529 15.0916 86.4187 15.0916 83.4116C15.0916 80.2991 17.124 78.1703 20.1023 78.1703C23.0805 78.1703 25.025 80.2324 25.025 83.4116C25.0363 83.6283 25.0125 83.8454 24.9547 84.0545H17.1381C17.3596 85.811 18.4778 86.9281 20.2711 86.9281ZM17.1557 82.4982H22.9434C22.6726 80.8401 21.6248 79.86 20.1023 79.86C18.5094 79.86 17.4616 80.8753 17.1557 82.4982Z" fill="#0C0005"/>
<path d="M37.1912 83.4117C37.1912 86.5206 35.3662 88.653 32.7607 88.653C32.1223 88.6742 31.4876 88.5476 30.9063 88.2831C30.325 88.0186 29.8128 87.6234 29.4097 87.1284V91.8638H27.3773V78.346H29.1355L29.2691 79.9338C29.6645 79.3805 30.1886 78.9316 30.7962 78.6256C31.4039 78.3196 32.0768 78.1658 32.7572 78.1773C35.4331 78.1703 37.1912 80.2324 37.1912 83.4117ZM35.1271 83.4117C35.1271 81.2793 34.0125 79.8987 32.2192 79.8987C30.4259 79.8987 29.2726 81.2828 29.2726 83.4117C29.2726 85.5405 30.4224 86.9246 32.2192 86.9246C34.016 86.9246 35.1271 85.5405 35.1271 83.4117Z" fill="#0C0005"/>
<path d="M48.2919 83.7137L46.9065 85.1189V88.4984H44.8741V85.1541L43.4676 83.7313L40.3523 88.4984H37.8909L42.0541 82.3788L38.0386 78.3459H40.6125L44.8741 82.8425V78.3459H46.9065V82.8074L51.1717 78.3459H53.7069L49.7476 82.3367L53.8792 88.4879H51.4425L48.2919 83.7137Z" fill="#0C0005"/>
<path d="M64.1325 86.7243V88.4808C63.9021 88.5343 63.6657 88.5579 63.4293 88.5511C62.1775 88.5511 61.6008 88.1119 61.4672 86.9281C61.0561 87.4788 60.5186 87.9229 59.9 88.223C59.2814 88.5232 58.5997 88.6706 57.9123 88.6529C55.9151 88.6529 54.5965 87.4339 54.5965 85.6775C54.5965 83.1727 56.9981 82.6317 58.9601 82.3296C60.4827 82.1259 61.2281 81.9783 61.2281 81.2125C61.2281 80.4467 60.3842 79.86 59.0972 79.86C58.5244 79.8671 57.959 79.9907 57.4354 80.2232C56.9119 80.4557 56.4413 80.7923 56.0522 81.2125L54.7969 79.8951C55.9779 78.7607 57.5611 78.1404 59.1992 78.1703C61.636 78.1703 63.1234 79.4209 63.1234 81.5181V86.085C63.1087 86.1727 63.1152 86.2626 63.1424 86.3473C63.1695 86.432 63.2165 86.509 63.2795 86.5719C63.3424 86.6347 63.4195 86.6817 63.5042 86.7088C63.589 86.736 63.679 86.7425 63.7668 86.7278L64.1325 86.7243ZM61.1543 84.6166V83.2992C60.7816 83.5346 60.1732 83.6505 59.1922 83.8051C57.9052 84.0088 56.5867 84.2126 56.5867 85.5299C56.5867 86.4784 57.195 86.9843 58.2428 86.9843C59.8005 86.9948 61.1543 85.9128 61.1543 84.6271V84.6166Z" fill="#0C0005"/>
<path d="M74.8254 85.7232C74.8254 87.5499 73.5068 88.4949 71.3092 88.4949H66.3864V78.3459H70.9189C73.1552 78.3459 74.5406 79.1574 74.5406 80.9842C74.5656 81.4705 74.4391 81.9527 74.1784 82.3642C73.9176 82.7757 73.5356 83.0962 73.0848 83.2816C73.6083 83.4324 74.0652 83.7558 74.3813 84.1992C74.6973 84.6425 74.8539 85.1796 74.8254 85.7232ZM68.3626 82.5615H70.9329C72.0862 82.5615 72.5574 82.1891 72.5574 81.2441C72.5574 80.4326 71.9843 79.9935 71.0349 79.9935H68.3626V82.5615ZM72.7965 85.5054C72.7965 84.6271 72.1179 84.1002 70.9681 84.1002H68.3626V86.9105H71.1052C72.1882 86.8578 72.7965 86.352 72.7965 85.4737V85.5054Z" fill="#0C0005"/>
<path d="M86.334 78.3459V88.4879H84.3016V84.2231H79.3789V88.4808H77.35V78.3459H79.3789V82.4034H84.3016V78.3459H86.334Z" fill="#0C0005"/>
<path d="M89.583 74.8892H91.8193V76.9197H89.5865L89.583 74.8892ZM89.685 78.3389H91.7138V88.4809H89.685V78.3389Z" fill="#0C0005"/>
<path d="M109.481 88.4808H107.452V80.1305H102.53V88.4808H100.497V78.3459H109.499L109.481 88.4808Z" fill="#0C0005"/>
<path d="M111.918 83.4116C111.918 80.2991 114.028 78.1703 117.062 78.1703C120.178 78.1703 122.207 80.2324 122.207 83.4116C122.207 86.5206 120.097 88.6529 117.062 88.6529C113.951 88.6529 111.918 86.5873 111.918 83.4116ZM120.143 83.4116C120.143 81.2793 118.926 79.8987 117.062 79.8987C115.199 79.8987 113.982 81.2828 113.982 83.4116C113.982 85.5405 115.202 86.9246 117.062 86.9246C118.922 86.9246 120.143 85.5405 120.143 83.4116Z" fill="#0C0005"/>
<path d="M123.898 83.4116C123.898 80.2991 125.965 78.1703 128.975 78.1703C131.176 78.1703 132.935 79.2839 133.511 81.2125L131.581 81.8202C131.141 80.6364 130.227 79.8951 128.975 79.8951C127.115 79.8951 125.965 81.2793 125.965 83.4081C125.965 85.5369 127.115 86.9211 128.975 86.9211C129.559 86.9186 130.126 86.7302 130.594 86.3833C131.063 86.0364 131.409 85.5492 131.581 84.9924L133.511 85.6002C132.935 87.5288 131.141 88.6459 128.975 88.6459C125.965 88.6529 123.898 86.5206 123.898 83.4116Z" fill="#0C0005"/>
<path d="M144.443 88.4808H142.411V80.1305H138.234V83.7805C138.234 87.4691 137.453 88.5511 135.491 88.5511C135.174 88.5505 134.858 88.527 134.545 88.4808V86.6225H135.069C135.948 86.6225 136.219 86.3871 136.219 83.5803V78.3459H144.443V88.4808Z" fill="#0C0005"/>
<path d="M156.933 78.3459L153.174 88.8602C152.531 90.687 151.416 92.0219 149.689 92.0219C147.657 92.0219 146.778 90.6167 146.778 89.0464L148.638 88.7408C148.606 89.5207 148.842 90.1952 149.721 90.1952C150.263 90.1952 150.67 89.8228 151.043 89.1413L146.268 78.3459H148.504L152.056 86.8333L154.834 78.3459H156.933Z" fill="#0C0005"/>
<path d="M166.036 80.1973H160.762V88.4808H158.73V78.3459H166.043L166.036 80.1973Z" fill="#0C0005"/>
<path d="M177 78.3459V88.4879H175.003V81.1106L170.08 88.4879H167.97V78.3459H169.968V85.6494L174.89 78.3459H177Z" fill="#0C0005"/>
<path d="M0.843903 103.759C0.843903 100.646 2.95364 98.5173 5.98815 98.5173C9.10353 98.5173 11.1324 100.579 11.1324 103.759C11.1324 106.868 9.02266 108.996 5.98815 108.996C2.87629 108.996 0.843903 106.934 0.843903 103.759ZM9.06835 103.759C9.06835 101.626 7.85175 100.246 5.98815 100.246C4.12455 100.246 2.90793 101.63 2.90793 103.759C2.90793 105.888 4.12806 107.272 5.98815 107.272C7.84824 107.272 9.06835 105.888 9.06835 103.759Z" fill="#0C0005"/>
<path d="M22.5742 98.6859V108.828H20.5418V104.57H15.6191V108.828H13.5867V98.6859H15.6191V102.743H20.5418V98.6859H22.5742Z" fill="#0C0005"/>
<path d="M34.5048 108.828H32.4759V100.478H28.2775V104.128C28.2775 107.816 27.5004 108.898 25.5349 108.898C25.2183 108.897 24.9022 108.874 24.589 108.828V106.97H25.1305C26.0095 106.97 26.2803 106.734 26.2803 103.927V98.6859H34.5048V108.828Z" fill="#0C0005"/>
<path d="M46.3298 107.071V108.828C46.0994 108.881 45.8631 108.905 45.6266 108.898C44.3748 108.898 43.7982 108.455 43.6646 107.275C43.2536 107.826 42.7161 108.27 42.0974 108.569C41.4787 108.869 40.7969 109.015 40.1096 108.996C38.1124 108.996 36.7938 107.781 36.7938 106.021C36.7938 103.52 39.1954 102.979 41.161 102.677C42.6835 102.473 43.4254 102.325 43.4254 101.56C43.4254 100.794 42.5816 100.207 41.2946 100.207C40.7217 100.214 40.1563 100.338 39.6328 100.57C39.1093 100.803 38.6386 101.139 38.2495 101.56L36.9977 100.242C38.1771 99.1072 39.7594 98.4868 41.3966 98.5173C43.8333 98.5173 45.3207 99.768 45.3207 101.865V106.432C45.306 106.52 45.3125 106.61 45.3397 106.694C45.3669 106.779 45.4139 106.856 45.4768 106.919C45.5397 106.982 45.6168 107.029 45.7016 107.056C45.7863 107.083 45.8763 107.09 45.9641 107.075L46.3298 107.071ZM43.3516 104.964V103.646C42.9789 103.882 42.3705 103.998 41.3895 104.152C40.1026 104.356 38.784 104.56 38.784 105.877C38.784 106.822 39.3923 107.331 40.4402 107.331C41.9978 107.342 43.3516 106.26 43.3516 104.974V104.964Z" fill="#0C0005"/>
<path d="M57.6346 98.686V108.828H55.6373V101.451L50.7146 108.828H48.6049V98.686H50.6021V105.989L55.5248 98.686H57.6346ZM50.0184 95.3381L51.6113 95.0676C51.6579 95.4293 51.8348 95.7616 52.1089 96.0024C52.3829 96.2432 52.7354 96.376 53.1004 96.376C53.4653 96.376 53.8178 96.2432 54.0919 96.0024C54.366 95.7616 54.5429 95.4293 54.5895 95.0676L56.1788 95.3381C56.0101 96.8592 54.8602 97.7375 53.0986 97.7375C51.337 97.7375 50.1872 96.8592 50.0184 95.3381Z" fill="#0C0005"/>
<path d="M69.8183 98.6859V108.828H67.7859V104.57H62.8456V108.828H60.8167V98.6859H62.8456V102.743H67.7859V98.6859H69.8183Z" fill="#0C0005"/>
<path d="M29.3078 58.5606C42.149 58.5606 49.287 58.5606 53.9531 53.8989C58.6191 49.2372 58.6155 42.1094 58.6155 29.2801C58.6155 16.4508 58.6156 9.31599 53.9531 4.65781C49.2905 -0.000373911 42.149 0.0066529 29.3078 0.0066529C16.4665 0.0066529 9.32505 0.0066535 4.66252 4.66483C3.35334e-06 9.32301 0 16.4543 0 29.2871C0 42.12 3.35334e-06 49.2478 4.66252 53.9059C9.32505 58.5641 16.463 58.5676 29.3078 58.5676" fill="#0C0005"/>
<path d="M40.3136 23.4911C39.807 23.4798 39.3033 23.5703 38.8324 23.7572C38.3614 23.9441 37.9329 24.2235 37.5722 24.579C37.2114 24.9345 36.9258 25.3588 36.7323 25.8267C36.5388 26.2945 36.4414 26.7965 36.4457 27.3027C36.4526 28.1021 36.7259 28.8764 37.2227 29.5031C37.7194 30.1298 38.4111 30.5731 39.1884 30.763L36.0484 35.5722H38.9809L41.6568 31.0967H43.6575V35.5722H46.1189V23.4911H40.3136ZM40.6652 29.0521C40.4451 29.0548 40.2268 29.0124 40.0237 28.9277C39.8206 28.8429 39.637 28.7176 39.4842 28.5593C39.3314 28.401 39.2126 28.2132 39.1351 28.0074C39.0576 27.8016 39.0231 27.5821 39.0337 27.3624C39.0337 26.4631 39.6033 25.6059 40.6652 25.6059H43.6821V29.0521H40.6652Z" fill="white"/>
<path d="M26.8956 23.4911L26.0834 25.7254L29.4203 25.7078L27.4442 32.9445C26.8816 35.0523 29.0827 36.6542 30.9604 35.4036L35.2326 32.5089L33.9738 30.6611L29.7051 33.612L32.5814 23.4841L26.8956 23.4911Z" fill="white"/>
<path d="M33.1932 20.4103C33.1932 21.2499 32.8205 21.9349 31.4984 21.9349C30.236 21.9349 29.8036 21.2499 29.8036 20.4103C29.8036 19.5707 30.236 18.8821 31.4984 18.8821C32.8205 18.8821 33.1932 19.5847 33.1932 20.4103Z" fill="white"/>
<path d="M22.852 33.3344V20.6878H13.4496V27.4467C13.4496 30.6084 12.5283 32.5897 11.9833 33.3415H10.8687V38.8603H13.2527V35.5933H22.1663V38.8603H24.5503V33.3344H22.852ZM15.8195 27.2992V22.9256H20.3906V33.3344H14.4693C15.0108 32.4562 15.809 30.2255 15.809 27.2992" fill="white"/>
<path d="M90.9508 49.3711C88.7361 47.6832 87.2315 45.2304 86.7313 42.4927H79.8641V12.7591C83.5667 14.6104 86.232 18.6784 86.545 22.8939L87.5822 31.2513L87.0618 31.1775C86.5206 31.2023 86.0081 31.4283 85.625 31.8111C85.2418 32.1939 85.0156 32.7058 84.9908 33.2466C85.0065 33.7229 85.1833 34.1799 85.4924 34.5429C85.8015 34.9059 86.2246 35.1536 86.6927 35.2455L87.9515 35.5406C90.0225 31.6201 91.2075 27.7734 91.2075 24.004C91.2075 20.6 90.7645 17.1994 90.6906 13.7216C90.6972 12.2221 91.2495 10.7761 92.2448 9.65359C93.24 10.7761 93.7924 12.2221 93.799 13.7216C93.799 17.1994 93.2821 20.6 93.2821 24.004C93.2821 27.7734 94.4635 31.6201 96.5381 35.5406L97.7969 35.2455C98.265 35.1536 98.6881 34.9059 98.9972 34.5429C99.3062 34.1799 99.483 33.7229 99.4987 33.2466C99.4747 32.7056 99.2488 32.1931 98.8655 31.8102C98.4822 31.4272 97.9692 31.2015 97.4277 31.1775L96.9073 31.2513L97.9622 22.8939C98.479 18.6784 100.923 14.6104 104.643 12.7591V42.4927H97.7582C97.2413 45.3031 95.7575 47.8184 93.5388 49.3711C93.0094 49.7284 92.577 50.2112 92.28 50.7763C91.9829 50.2112 91.5504 49.7284 91.0211 49.3711H90.9508ZM83.1729 32.2138C83.51 31.0781 84.2821 30.1212 85.3213 29.551L84.4352 22.6726C84.1583 20.5951 83.2837 18.6425 81.9176 17.0519V32.2138H83.1729ZM86.654 40.4236C86.6628 39.4267 86.7867 38.4342 87.0232 37.4657L86.0597 37.2408C85.3685 37.0299 84.7417 36.6483 84.2371 36.1313C83.7325 35.6143 83.3665 34.9786 83.1729 34.2829H81.988V40.4236H86.654ZM91.2426 40.4236C91.2401 39.8065 91.0134 39.2114 90.6046 38.7487C90.1959 38.2861 89.633 37.9875 89.0204 37.9083C88.7915 38.7273 88.6733 39.5733 88.6688 40.4236H91.2426ZM91.2426 42.4927H88.9501C89.3354 44.1164 90.1238 45.6169 91.2426 46.8558V42.4927ZM94.4987 36.0605C93.5796 34.4427 92.8358 32.7316 92.28 30.9562C91.7244 32.7323 90.9794 34.4435 90.0577 36.0605C90.9288 36.3206 91.7026 36.8343 92.28 37.5359C92.8554 36.8337 93.6282 36.3198 94.4987 36.0605ZM95.9052 40.4236C95.8967 39.5723 95.7724 38.7262 95.5359 37.9083C94.924 37.9882 94.3619 38.2872 93.9539 38.7498C93.5459 39.2123 93.3197 39.807 93.3172 40.4236H95.9052ZM95.6098 42.4927H93.3172V46.8558C94.4361 45.6169 95.2245 44.1164 95.6098 42.4927ZM102.568 40.4236V34.2829H101.313C101.119 34.9789 100.752 35.6147 100.247 36.1317C99.7419 36.6486 99.1145 37.0301 98.4228 37.2408L97.4629 37.4657C97.6935 38.4349 97.8114 39.4274 97.8145 40.4236H102.568ZM102.568 32.2138V17.0519C101.178 18.6263 100.301 20.5871 100.054 22.6726L99.2385 29.551C100.278 30.1212 101.05 31.0781 101.387 32.2138H102.568Z" fill="#0C0005"/>
<path d="M91.9037 0.916879C104.52 0.916879 111.472 0.916879 115.856 5.29754C120.241 9.67819 120.245 16.6233 120.245 29.2278C120.245 41.8323 120.245 48.7774 115.856 53.1581C111.468 57.5387 104.52 57.5422 91.9037 57.5422C79.2875 57.5422 72.3359 57.5422 67.9512 53.1581C63.5664 48.7739 63.5629 41.8323 63.5629 29.2278C63.5629 16.6233 63.5629 9.67819 67.9512 5.29754C72.3394 0.916879 79.2875 0.916879 91.9037 0.916879ZM91.9037 0C79.0835 0 71.9561 -6.70043e-07 67.2901 4.65115C62.6241 9.30231 62.6346 16.4196 62.6346 29.2418C62.6346 42.0641 62.6346 49.1708 67.2901 53.8325C71.9456 58.4942 79.073 58.4837 91.9037 58.4837C104.734 58.4837 111.851 58.4837 116.517 53.8325C121.183 49.1814 121.173 42.0606 121.173 29.2418C121.173 16.4231 121.173 9.31285 116.517 4.65115C111.862 -0.0105398 104.724 0.00702473 91.9037 0.00702473" fill="#0C0005"/>
</g>
<defs>
<clipPath id="clip0">
<rect width="177" height="109" fill="white"/>
</clipPath>
</defs>
</svg>
