<svg width="116" height="45" viewBox="0 0 116 45" fill="none" xmlns="http://www.w3.org/2000/svg">
<g clip-path="url(#clip0)">
<path d="M14.7552 29.4292C21.2202 29.4292 24.8139 29.4292 27.163 27.0883C29.5122 24.7473 29.5104 21.1618 29.5104 14.7146C29.5104 8.26736 29.5104 4.68182 27.163 2.3409C24.8157 -1.98667e-05 21.2202 0 14.7552 0C8.29018 0 4.69476 -1.98667e-05 2.34738 2.3409C1.68826e-06 4.68182 0 8.26736 0 14.7146C0 21.1618 1.68826e-06 24.7473 2.34738 27.0883C4.69476 29.4292 8.28841 29.4292 14.7552 29.4292Z" fill="#0C0005"/>
<path d="M20.2963 11.8053C20.0411 11.7996 19.7873 11.8451 19.5501 11.9391C19.3129 12.0332 19.0971 12.1738 18.9154 12.3526C18.7338 12.5314 18.59 12.7449 18.4927 12.9802C18.3954 13.2155 18.3465 13.468 18.349 13.7225C18.3527 14.1241 18.4905 14.5131 18.7405 14.828C18.9906 15.1429 19.3386 15.3657 19.7298 15.4614L18.1489 17.8782H19.6253L20.9725 15.6291H21.9798V17.8782H23.219V11.8053H20.2963ZM20.4733 14.5999C20.3625 14.6012 20.2526 14.58 20.1503 14.5374C20.0481 14.4948 19.9556 14.4318 19.8787 14.3522C19.8018 14.2727 19.742 14.1783 19.7029 14.0749C19.6639 13.9714 19.6466 13.8611 19.6519 13.7507C19.6519 13.2988 19.9387 12.868 20.4733 12.868H21.9922V14.5999H20.4733Z" fill="white"/>
<path d="M13.5408 11.8052L13.1318 12.928H14.8118L13.8169 16.5665C13.5337 17.6257 14.6419 18.4289 15.5872 17.8022L17.7381 16.3458L17.1043 15.4172L14.9552 16.9019L16.4033 11.8105L13.5408 11.8052Z" fill="white"/>
<path d="M16.7114 10.2569C16.7114 10.6806 16.5238 11.0249 15.8581 11.0249C15.2226 11.0249 15.0049 10.6718 15.0049 10.2569C15.0049 9.84205 15.2226 9.49072 15.8581 9.49072C16.5238 9.49072 16.7114 9.83323 16.7114 10.2569Z" fill="white"/>
<path d="M11.505 16.7607V10.4053H6.7713V13.8001C6.7713 15.389 6.30749 16.3864 6.0331 16.7642H5.47192V19.5412H6.67216V17.8994H11.1598V19.5412H12.36V16.7607H11.505ZM7.96446 13.7277V11.5298H10.2658V16.7607H7.28468C7.5573 16.3194 7.95915 15.1966 7.95915 13.7277" fill="white"/>
<path d="M45.7899 24.8127C44.6749 23.9637 43.9175 22.7306 43.6656 21.3543H40.2083V6.41376C42.0723 7.34235 43.4142 9.38668 43.5718 11.5052L44.094 15.7068L43.832 15.668C43.5592 15.6805 43.301 15.7943 43.108 15.987C42.9151 16.1798 42.8014 16.4375 42.7893 16.7095C42.7976 16.9486 42.8868 17.1779 43.0424 17.3599C43.1979 17.542 43.4108 17.6662 43.6461 17.7123L44.2799 17.8624C45.3226 15.8922 45.9191 13.9591 45.9191 12.063C45.9191 10.3541 45.6961 8.64345 45.6589 6.89747C45.6622 6.14389 45.9403 5.41726 46.4414 4.85315C46.9424 5.41726 47.2205 6.14389 47.2238 6.89747C47.2238 8.64345 46.9636 10.3541 46.9636 12.063C46.9636 13.9591 47.5584 15.8922 48.6029 17.8624L49.2366 17.7123C49.472 17.6662 49.6848 17.542 49.8404 17.3599C49.9959 17.1779 50.0851 16.9486 50.0934 16.7095C50.0818 16.4373 49.9682 16.1794 49.7752 15.9866C49.5822 15.7938 49.3237 15.6801 49.0507 15.668L48.7888 15.7068L49.3198 11.5052C49.5801 9.38668 50.8104 7.34235 52.6834 6.41376V21.3508H49.2172C48.989 22.736 48.2266 23.9772 47.0928 24.8092C46.8258 24.9881 46.6079 25.2309 46.4591 25.5154C46.3103 25.2309 46.0924 24.9881 45.8253 24.8092L45.7899 24.8127ZM41.8741 16.1852C42.0443 15.6148 42.4329 15.1341 42.9557 14.8471L42.5096 11.3939C42.3698 10.35 41.9295 9.36887 41.2421 8.5693V16.1888L41.8741 16.1852ZM43.6267 20.311C43.6311 19.81 43.6935 19.3112 43.8125 18.8245L43.3275 18.7133C42.9796 18.607 42.6642 18.4151 42.4102 18.1554C42.1562 17.8956 41.9719 17.5763 41.8741 17.2268H41.2775V20.311H43.6267ZM45.9368 20.311C45.9356 20.0009 45.8214 19.7018 45.6156 19.4693C45.4099 19.2368 45.1264 19.0867 44.818 19.0469C44.703 19.4586 44.6434 19.8836 44.641 20.311H45.9368ZM45.9368 21.3508H44.7826C44.9762 22.1674 45.3732 22.9222 45.9368 23.5452V21.3508ZM47.5761 18.1183C47.1128 17.3056 46.7383 16.4457 46.4591 15.5532C46.1801 16.446 45.8049 17.3061 45.3403 18.1183C45.7795 18.2486 46.1693 18.5076 46.4591 18.8616C46.7482 18.5076 47.1374 18.2486 47.5761 18.1183ZM48.2842 20.311C48.2798 19.8832 48.2173 19.458 48.0983 19.0469C47.7903 19.0871 47.5073 19.2374 47.3018 19.4698C47.0964 19.7023 46.9825 20.0011 46.9813 20.311H48.2842ZM48.1355 21.3508H46.9813V23.5452C47.545 22.9222 47.942 22.1674 48.1355 21.3508ZM51.6389 20.311V17.2268H51.0069C50.9088 17.5764 50.7241 17.8958 50.4698 18.1555C50.2156 18.4153 49.8998 18.6071 49.5518 18.7133L49.0685 18.8245C49.1846 19.3115 49.244 19.8103 49.2455 20.311H51.6389ZM51.6389 16.1852V8.5693C50.9389 9.3607 50.4974 10.346 50.3732 11.3939L49.9624 14.8506C50.4853 15.1376 50.8738 15.6183 51.0441 16.1888L51.6389 16.1852Z" fill="#0C0005"/>
<path d="M46.2697 0.460766C52.6214 0.460766 56.1212 0.460761 58.3287 2.66221C60.5363 4.86366 60.538 8.35562 60.538 14.6899C60.538 21.0241 60.538 24.5125 58.3287 26.7158C56.1195 28.919 52.6214 28.9172 46.2697 28.9172C39.9179 28.9172 36.4181 28.9172 34.2106 26.7158C32.0031 24.5143 32.0013 21.0241 32.0013 14.6899C32.0013 8.35562 32.0013 4.86543 34.2106 2.66221C36.4199 0.458996 39.9179 0.460766 46.2697 0.460766ZM46.2697 1.07411e-07C39.8153 1.07411e-07 36.2269 -1.51525e-06 33.8778 2.33739C31.5286 4.67477 31.5339 8.25323 31.5339 14.6952C31.5339 21.1371 31.5339 24.7085 33.8778 27.053C36.2216 29.3974 39.8099 29.3886 46.2697 29.3886C52.7294 29.3886 56.3124 29.3886 58.6616 27.053C61.0107 24.7173 61.0054 21.1371 61.0054 14.6952C61.0054 8.25323 61.0054 4.68007 58.6616 2.33739C56.3177 -0.00529783 52.7294 1.07411e-07 46.2697 1.07411e-07Z" fill="#0C0005"/>
</g>
<path d="M69.9408 11.0336V17.8304H69.0557L68.9884 17.0324C68.7893 17.3104 68.5255 17.5361 68.2196 17.6898C67.9137 17.8436 67.5748 17.9209 67.2323 17.9151C65.8869 17.9151 65 16.8788 65 15.2811C65 13.7188 65.9205 12.6489 67.2323 12.6489C67.5535 12.6384 67.8728 12.702 68.1654 12.8345C68.458 12.9671 68.716 13.1652 68.9194 13.4133V11.0336H69.9408ZM68.9866 15.2811C68.9866 14.2113 68.406 13.5157 67.5032 13.5157C66.6003 13.5157 66.0374 14.2131 66.0374 15.2811C66.0374 16.3492 66.6003 17.0465 67.5032 17.0465C68.406 17.0465 68.9866 16.3527 68.9866 15.2811Z" fill="#0C0005"/>
<path d="M71.575 11H72.7009V12.0186H71.575V11ZM71.6263 12.7336H72.6495V17.8303H71.6263V12.7336Z" fill="#0C0005"/>
<path d="M74.3701 11H75.4943V12.0186H74.3701V11ZM74.4215 12.7336H75.4429V17.8303H74.4215V12.7336Z" fill="#0C0005"/>
<path d="M81.476 16.9475V17.8302C81.3599 17.8562 81.2409 17.8675 81.122 17.8638C80.4918 17.8638 80.2032 17.6431 80.1342 17.0482C79.9279 17.3252 79.6577 17.5487 79.3464 17.6995C79.0352 17.8504 78.6921 17.9243 78.3462 17.915C77.3407 17.915 76.675 17.3042 76.675 16.4197C76.675 15.1627 77.8859 14.8908 78.8737 14.7373C79.6403 14.6366 80.0156 14.5607 80.0156 14.1776C80.0156 13.7945 79.5889 13.498 78.941 13.498C78.6526 13.5015 78.3679 13.5636 78.1043 13.6805C77.8408 13.7973 77.6038 13.9665 77.4079 14.1776L76.7777 13.5138C77.3725 12.9453 78.1686 12.6343 78.9923 12.6488C80.2191 12.6488 80.9697 13.2773 80.9697 14.3295V16.6245C80.9624 16.6686 80.9656 16.7137 80.9793 16.7563C80.993 16.7989 81.0166 16.8376 81.0483 16.8692C81.08 16.9008 81.1188 16.9244 81.1615 16.938C81.2042 16.9516 81.2495 16.9549 81.2937 16.9475H81.476ZM79.9766 15.8883V15.2263C79.789 15.3446 79.4809 15.4028 78.987 15.4805C78.3409 15.5829 77.6753 15.6835 77.6753 16.3473C77.6753 16.8222 77.9815 17.0782 78.5108 17.0782C79.2897 17.0835 79.9766 16.5397 79.9766 15.8936V15.8883Z" fill="#0C0005"/>
<path d="M82.5151 16.5044H83.8428V17.8302H82.5151V16.5044Z" fill="#0C0005"/>
<path d="M89.7343 12.7371L89.7166 17.3078C89.7166 18.6671 88.796 19.6187 87.2382 19.6187C86.3 19.6187 85.6184 19.3468 85.1599 18.8878L85.7051 18.1816C86.1141 18.6053 86.5726 18.7589 87.2205 18.7589C88.3623 18.7589 88.7713 18.1128 88.7713 17.2972V16.7976C88.5643 17.0582 88.2997 17.2674 87.9981 17.4089C87.6965 17.5504 87.3661 17.6203 87.0328 17.6132C85.6874 17.6132 84.8005 16.6281 84.8005 15.1416C84.8005 13.6551 85.7211 12.67 87.0328 12.67C87.3692 12.6593 87.7033 12.7275 88.0084 12.8692C88.3134 13.0108 88.5808 13.222 88.789 13.4857L88.8562 12.7548L89.7343 12.7371ZM88.7801 15.1487C88.7801 14.1636 88.1995 13.5175 87.2966 13.5175C86.3938 13.5175 85.8326 14.1636 85.8326 15.1487C85.8326 16.1338 86.4115 16.7799 87.2966 16.7799C88.1817 16.7799 88.7854 16.1479 88.7854 15.1451L88.7801 15.1487Z" fill="#0C0005"/>
<path d="M90.9736 15.281C90.9736 13.7186 92.0358 12.6488 93.5635 12.6488C95.1302 12.6488 96.1534 13.6851 96.1534 15.281C96.1534 16.8452 95.0913 17.915 93.5635 17.915C91.988 17.915 90.9736 16.8787 90.9736 15.281ZM95.1143 15.281C95.1143 14.2112 94.5 13.5156 93.5635 13.5156C92.6271 13.5156 92.0128 14.213 92.0128 15.281C92.0128 16.3491 92.6253 17.0464 93.5635 17.0464C94.5018 17.0464 95.1072 16.3526 95.1072 15.281H95.1143Z" fill="#0C0005"/>
<path d="M101.802 12.7372L99.7913 17.8339H98.5999L96.5889 12.7372H97.713L99.2124 16.7976L100.73 12.7372H101.802Z" fill="#0C0005"/>
<path d="M102.211 16.5044H103.542V17.8302H102.213L102.211 16.5044Z" fill="#0C0005"/>
<path d="M109.572 12.7372V17.8339H108.687L108.618 17.0359C108.41 17.3169 108.137 17.5438 107.823 17.6974C107.509 17.8511 107.162 17.9269 106.812 17.9186C105.722 17.9186 104.955 17.1383 104.955 15.9643V12.7372H105.977V15.6925C105.977 16.5593 106.403 17.0518 107.101 17.0518C107.289 17.0592 107.476 17.0286 107.652 16.9619C107.828 16.8952 107.988 16.7937 108.123 16.6636C108.259 16.5335 108.366 16.3774 108.44 16.2048C108.513 16.0321 108.551 15.8465 108.551 15.6589V12.7372H109.572Z" fill="#0C0005"/>
<path d="M115.518 16.9476V17.8303C115.402 17.8562 115.283 17.8675 115.164 17.8638C114.534 17.8638 114.244 17.6431 114.176 17.0482C113.97 17.3255 113.699 17.5491 113.388 17.7C113.076 17.8509 112.733 17.9246 112.387 17.915C111.381 17.915 110.717 17.3042 110.717 16.4197C110.717 15.1627 111.926 14.8909 112.916 14.7373C113.682 14.6367 114.056 14.5608 114.056 14.1777C114.056 13.7946 113.631 13.498 112.983 13.498C112.695 13.5016 112.41 13.5636 112.147 13.6805C111.883 13.7974 111.646 13.9665 111.45 14.1777L110.82 13.5139C111.415 12.945 112.211 12.634 113.035 12.6488C114.261 12.6488 115.012 13.2773 115.012 14.3295V16.6245C115.012 16.8452 115.113 16.9476 115.334 16.9476H115.518ZM114.019 15.8883V15.2263C113.831 15.3446 113.525 15.4029 113.031 15.4805C112.383 15.5829 111.719 15.6835 111.719 16.3473C111.719 16.8222 112.026 17.0782 112.553 17.0782C113.337 17.0835 114.019 16.5398 114.019 15.8936V15.8883Z" fill="#0C0005"/>
<defs>
<clipPath id="clip0">
<rect width="61" height="45" fill="white"/>
</clipPath>
</defs>
</svg>
